<?xml version="1.0" standalone="no"?>
<!DOCTYPE svg PUBLIC "-//W3C//DTD SVG 20010904//EN"
 "http://www.w3.org/TR/2001/REC-SVG-20010904/DTD/svg10.dtd">
<svg version="1.0" xmlns="http://www.w3.org/2000/svg"
 width="512.000000pt" height="512.000000pt" viewBox="0 0 512.000000 512.000000"
 preserveAspectRatio="xMidYMid meet">

<g transform="translate(0.000000,512.000000) scale(0.100000,-0.100000)"
fill="#000000" stroke="none">
<path d="M495 4946 c-41 -18 -83 -69 -90 -109 -3 -18 -4 -1090 -3 -2384 l3
-2352 21 -27 c11 -15 33 -37 48 -48 l27 -21 1987 0 1987 0 55 26 c70 33 126
89 159 159 l26 55 0 2235 0 2235 -26 55 c-33 70 -89 126 -159 159 l-55 26
-637 3 -638 3 0 -561 c0 -308 -1 -560 -3 -560 -2 0 -92 36 -200 79 l-197 79
-197 -79 c-108 -43 -198 -79 -200 -79 -2 0 -3 252 -3 560 l0 560 -937 0 c-757
-1 -944 -3 -968 -14z m3900 -157 c54 -15 139 -100 154 -154 16 -57 16 -4253 0
-4310 -15 -54 -100 -139 -154 -154 -22 -6 -110 -11 -196 -11 l-156 0 19 55
c18 53 18 134 16 2278 -3 2091 -4 2224 -20 2261 -10 21 -18 40 -18 42 0 9 319
3 355 -7z"/>
</g>
</svg>
