<svg width="393" height="136" viewBox="0 0 393 136" fill="none" xmlns="http://www.w3.org/2000/svg">
<g filter="url(#filter0_b_152_74)">
<rect x="24" y="14" width="360" height="93" rx="20" fill="white" fill-opacity="0.8"/>
</g>
<path d="M116.832 35.752V50H114.02V38.9941L110.641 40.0684V37.8516L116.529 35.752H116.832ZM131.431 41.6406V44.1016C131.431 45.1693 131.317 46.0905 131.089 46.8652C130.862 47.6335 130.533 48.265 130.103 48.7598C129.68 49.248 129.175 49.6094 128.589 49.8438C128.004 50.0781 127.352 50.1953 126.636 50.1953C126.063 50.1953 125.53 50.1237 125.035 49.9805C124.54 49.8307 124.094 49.5996 123.697 49.2871C123.306 48.9746 122.968 48.5807 122.681 48.1055C122.401 47.6237 122.186 47.0508 122.037 46.3867C121.887 45.7227 121.812 44.9609 121.812 44.1016V41.6406C121.812 40.5729 121.926 39.6582 122.154 38.8965C122.388 38.1283 122.717 37.5 123.14 37.0117C123.57 36.5234 124.078 36.1654 124.664 35.9375C125.25 35.7031 125.901 35.5859 126.617 35.5859C127.19 35.5859 127.72 35.6608 128.209 35.8105C128.703 35.9538 129.149 36.1784 129.546 36.4844C129.944 36.7904 130.282 37.1842 130.562 37.666C130.842 38.1413 131.057 38.7109 131.207 39.375C131.356 40.0326 131.431 40.7878 131.431 41.6406ZM128.609 44.4727V41.2598C128.609 40.7454 128.58 40.2962 128.521 39.9121C128.469 39.528 128.388 39.2025 128.277 38.9355C128.166 38.6621 128.03 38.4408 127.867 38.2715C127.704 38.1022 127.518 37.9785 127.31 37.9004C127.102 37.8223 126.871 37.7832 126.617 37.7832C126.298 37.7832 126.015 37.8451 125.767 37.9688C125.526 38.0924 125.321 38.291 125.152 38.5645C124.983 38.8314 124.852 39.1895 124.761 39.6387C124.677 40.0814 124.634 40.6217 124.634 41.2598V44.4727C124.634 44.987 124.66 45.4395 124.712 45.8301C124.771 46.2207 124.856 46.556 124.966 46.8359C125.084 47.1094 125.22 47.334 125.377 47.5098C125.539 47.679 125.725 47.8027 125.933 47.8809C126.148 47.959 126.382 47.998 126.636 47.998C126.949 47.998 127.226 47.9362 127.466 47.8125C127.714 47.6823 127.922 47.4805 128.091 47.207C128.267 46.9271 128.397 46.5625 128.482 46.1133C128.567 45.6641 128.609 45.1172 128.609 44.4727ZM143.316 41.6406V44.1016C143.316 45.1693 143.202 46.0905 142.974 46.8652C142.746 47.6335 142.417 48.265 141.987 48.7598C141.564 49.248 141.06 49.6094 140.474 49.8438C139.888 50.0781 139.237 50.1953 138.521 50.1953C137.948 50.1953 137.414 50.1237 136.919 49.9805C136.424 49.8307 135.978 49.5996 135.581 49.2871C135.191 48.9746 134.852 48.5807 134.566 48.1055C134.286 47.6237 134.071 47.0508 133.921 46.3867C133.771 45.7227 133.696 44.9609 133.696 44.1016V41.6406C133.696 40.5729 133.81 39.6582 134.038 38.8965C134.273 38.1283 134.601 37.5 135.025 37.0117C135.454 36.5234 135.962 36.1654 136.548 35.9375C137.134 35.7031 137.785 35.5859 138.501 35.5859C139.074 35.5859 139.605 35.6608 140.093 35.8105C140.588 35.9538 141.034 36.1784 141.431 36.4844C141.828 36.7904 142.167 37.1842 142.446 37.666C142.726 38.1413 142.941 38.7109 143.091 39.375C143.241 40.0326 143.316 40.7878 143.316 41.6406ZM140.493 44.4727V41.2598C140.493 40.7454 140.464 40.2962 140.405 39.9121C140.353 39.528 140.272 39.2025 140.161 38.9355C140.051 38.6621 139.914 38.4408 139.751 38.2715C139.588 38.1022 139.403 37.9785 139.195 37.9004C138.986 37.8223 138.755 37.7832 138.501 37.7832C138.182 37.7832 137.899 37.8451 137.652 37.9688C137.411 38.0924 137.206 38.291 137.036 38.5645C136.867 38.8314 136.737 39.1895 136.646 39.6387C136.561 40.0814 136.519 40.6217 136.519 41.2598V44.4727C136.519 44.987 136.545 45.4395 136.597 45.8301C136.655 46.2207 136.74 46.556 136.851 46.8359C136.968 47.1094 137.105 47.334 137.261 47.5098C137.424 47.679 137.609 47.8027 137.818 47.8809C138.032 47.959 138.267 47.998 138.521 47.998C138.833 47.998 139.11 47.9362 139.351 47.8125C139.598 47.6823 139.807 47.4805 139.976 47.207C140.152 46.9271 140.282 46.5625 140.366 46.1133C140.451 45.6641 140.493 45.1172 140.493 44.4727ZM148.852 35.7812V50H145.923V35.7812H148.852ZM157.368 35.7812L151.733 42.8027L148.481 46.2988L147.954 43.5254L150.151 40.5176L153.774 35.7812H157.368ZM154.038 50L149.848 43.4277L152.016 41.6113L157.505 50H154.038ZM173.441 42.0801V44.5312H163.695V42.0801H173.441ZM169.906 38.2227V48.5742H167.24V38.2227H169.906Z" fill="#595959"/>
<path d="M114.58 74.126C113.704 74.126 112.912 73.976 112.204 73.676C111.508 73.376 110.956 72.944 110.548 72.38C110.14 71.816 109.93 71.15 109.918 70.382H112.618C112.654 70.898 112.834 71.306 113.158 71.606C113.494 71.906 113.95 72.056 114.526 72.056C115.114 72.056 115.576 71.918 115.912 71.642C116.248 71.354 116.416 70.982 116.416 70.526C116.416 70.154 116.302 69.848 116.074 69.608C115.846 69.368 115.558 69.182 115.21 69.05C114.874 68.906 114.406 68.75 113.806 68.582C112.99 68.342 112.324 68.108 111.808 67.88C111.304 67.64 110.866 67.286 110.494 66.818C110.134 66.338 109.954 65.702 109.954 64.91C109.954 64.166 110.14 63.518 110.512 62.966C110.884 62.414 111.406 61.994 112.078 61.706C112.75 61.406 113.518 61.256 114.382 61.256C115.678 61.256 116.728 61.574 117.532 62.21C118.348 62.834 118.798 63.71 118.882 64.838H116.11C116.086 64.406 115.9 64.052 115.552 63.776C115.216 63.488 114.766 63.344 114.202 63.344C113.71 63.344 113.314 63.47 113.014 63.722C112.726 63.974 112.582 64.34 112.582 64.82C112.582 65.156 112.69 65.438 112.906 65.666C113.134 65.882 113.41 66.062 113.734 66.206C114.07 66.338 114.538 66.494 115.138 66.674C115.954 66.914 116.62 67.154 117.136 67.394C117.652 67.634 118.096 67.994 118.468 68.474C118.84 68.954 119.026 69.584 119.026 70.364C119.026 71.036 118.852 71.66 118.504 72.236C118.156 72.812 117.646 73.274 116.974 73.622C116.302 73.958 115.504 74.126 114.58 74.126ZM122.849 62.84C122.405 62.84 122.033 62.702 121.733 62.426C121.445 62.138 121.301 61.784 121.301 61.364C121.301 60.944 121.445 60.596 121.733 60.32C122.033 60.032 122.405 59.888 122.849 59.888C123.293 59.888 123.659 60.032 123.947 60.32C124.247 60.596 124.397 60.944 124.397 61.364C124.397 61.784 124.247 62.138 123.947 62.426C123.659 62.702 123.293 62.84 122.849 62.84ZM124.091 64.028V74H121.571V64.028H124.091ZM130.757 74.162C129.941 74.162 129.209 74.018 128.561 73.73C127.913 73.43 127.397 73.028 127.013 72.524C126.641 72.02 126.437 71.462 126.401 70.85H128.939C128.987 71.234 129.173 71.552 129.497 71.804C129.833 72.056 130.247 72.182 130.739 72.182C131.219 72.182 131.591 72.086 131.855 71.894C132.131 71.702 132.269 71.456 132.269 71.156C132.269 70.832 132.101 70.592 131.765 70.436C131.441 70.268 130.919 70.088 130.199 69.896C129.455 69.716 128.843 69.53 128.363 69.338C127.895 69.146 127.487 68.852 127.139 68.456C126.803 68.06 126.635 67.526 126.635 66.854C126.635 66.302 126.791 65.798 127.103 65.342C127.427 64.886 127.883 64.526 128.471 64.262C129.071 63.998 129.773 63.866 130.577 63.866C131.765 63.866 132.713 64.166 133.421 64.766C134.129 65.354 134.519 66.152 134.591 67.16H132.179C132.143 66.764 131.975 66.452 131.675 66.224C131.387 65.984 130.997 65.864 130.505 65.864C130.049 65.864 129.695 65.948 129.443 66.116C129.203 66.284 129.083 66.518 129.083 66.818C129.083 67.154 129.251 67.412 129.587 67.592C129.923 67.76 130.445 67.934 131.153 68.114C131.873 68.294 132.467 68.48 132.935 68.672C133.403 68.864 133.805 69.164 134.141 69.572C134.489 69.968 134.669 70.496 134.681 71.156C134.681 71.732 134.519 72.248 134.195 72.704C133.883 73.16 133.427 73.52 132.827 73.784C132.239 74.036 131.549 74.162 130.757 74.162ZM150.933 64.028L148.017 74H145.299L143.481 67.034L141.663 74H138.927L135.993 64.028H138.549L140.313 71.624L142.221 64.028H144.885L146.757 71.606L148.521 64.028H150.933ZM152.009 68.978C152.009 67.97 152.207 67.076 152.603 66.296C153.011 65.516 153.557 64.916 154.241 64.496C154.937 64.076 155.711 63.866 156.563 63.866C157.307 63.866 157.955 64.016 158.507 64.316C159.071 64.616 159.521 64.994 159.857 65.45V64.028H162.395V74H159.857V72.542C159.533 73.01 159.083 73.4 158.507 73.712C157.943 74.012 157.289 74.162 156.545 74.162C155.705 74.162 154.937 73.946 154.241 73.514C153.557 73.082 153.011 72.476 152.603 71.696C152.207 70.904 152.009 69.998 152.009 68.978ZM159.857 69.014C159.857 68.402 159.737 67.88 159.497 67.448C159.257 67.004 158.933 66.668 158.525 66.44C158.117 66.2 157.679 66.08 157.211 66.08C156.743 66.08 156.311 66.194 155.915 66.422C155.519 66.65 155.195 66.986 154.943 67.43C154.703 67.862 154.583 68.378 154.583 68.978C154.583 69.578 154.703 70.106 154.943 70.562C155.195 71.006 155.519 71.348 155.915 71.588C156.323 71.828 156.755 71.948 157.211 71.948C157.679 71.948 158.117 71.834 158.525 71.606C158.933 71.366 159.257 71.03 159.497 70.598C159.737 70.154 159.857 69.626 159.857 69.014ZM179.405 64.028L173.231 78.716H170.549L172.709 73.748L168.713 64.028H171.539L174.113 70.994L176.723 64.028H179.405ZM180.475 68.978C180.475 67.97 180.673 67.076 181.069 66.296C181.477 65.516 182.023 64.916 182.707 64.496C183.403 64.076 184.177 63.866 185.029 63.866C185.773 63.866 186.421 64.016 186.973 64.316C187.537 64.616 187.987 64.994 188.323 65.45V64.028H190.861V74H188.323V72.542C187.999 73.01 187.549 73.4 186.973 73.712C186.409 74.012 185.755 74.162 185.011 74.162C184.171 74.162 183.403 73.946 182.707 73.514C182.023 73.082 181.477 72.476 181.069 71.696C180.673 70.904 180.475 69.998 180.475 68.978ZM188.323 69.014C188.323 68.402 188.203 67.88 187.963 67.448C187.723 67.004 187.399 66.668 186.991 66.44C186.583 66.2 186.145 66.08 185.677 66.08C185.209 66.08 184.777 66.194 184.381 66.422C183.985 66.65 183.661 66.986 183.409 67.43C183.169 67.862 183.049 68.378 183.049 68.978C183.049 69.578 183.169 70.106 183.409 70.562C183.661 71.006 183.985 71.348 184.381 71.588C184.789 71.828 185.221 71.948 185.677 71.948C186.145 71.948 186.583 71.834 186.991 71.606C187.399 71.366 187.723 71.03 187.963 70.598C188.203 70.154 188.323 69.626 188.323 69.014ZM199.209 63.884C200.397 63.884 201.357 64.262 202.089 65.018C202.821 65.762 203.187 66.806 203.187 68.15V74H200.667V68.492C200.667 67.7 200.469 67.094 200.073 66.674C199.677 66.242 199.137 66.026 198.453 66.026C197.757 66.026 197.205 66.242 196.797 66.674C196.401 67.094 196.203 67.7 196.203 68.492V74H193.683V64.028H196.203V65.27C196.539 64.838 196.965 64.502 197.481 64.262C198.009 64.01 198.585 63.884 199.209 63.884ZM209.849 63.866C210.593 63.866 211.247 64.016 211.811 64.316C212.375 64.604 212.819 64.982 213.143 65.45V64.028H215.681V74.072C215.681 74.996 215.495 75.818 215.123 76.538C214.751 77.27 214.193 77.846 213.449 78.266C212.705 78.698 211.805 78.914 210.749 78.914C209.333 78.914 208.169 78.584 207.257 77.924C206.357 77.264 205.847 76.364 205.727 75.224H208.229C208.361 75.68 208.643 76.04 209.075 76.304C209.519 76.58 210.053 76.718 210.677 76.718C211.409 76.718 212.003 76.496 212.459 76.052C212.915 75.62 213.143 74.96 213.143 74.072V72.524C212.819 72.992 212.369 73.382 211.793 73.694C211.229 74.006 210.581 74.162 209.849 74.162C209.009 74.162 208.241 73.946 207.545 73.514C206.849 73.082 206.297 72.476 205.889 71.696C205.493 70.904 205.295 69.998 205.295 68.978C205.295 67.97 205.493 67.076 205.889 66.296C206.297 65.516 206.843 64.916 207.527 64.496C208.223 64.076 208.997 63.866 209.849 63.866ZM213.143 69.014C213.143 68.402 213.023 67.88 212.783 67.448C212.543 67.004 212.219 66.668 211.811 66.44C211.403 66.2 210.965 66.08 210.497 66.08C210.029 66.08 209.597 66.194 209.201 66.422C208.805 66.65 208.481 66.986 208.229 67.43C207.989 67.862 207.869 68.378 207.869 68.978C207.869 69.578 207.989 70.106 208.229 70.562C208.481 71.006 208.805 71.348 209.201 71.588C209.609 71.828 210.041 71.948 210.497 71.948C210.965 71.948 211.403 71.834 211.811 71.606C212.219 71.366 212.543 71.03 212.783 70.598C213.023 70.154 213.143 69.626 213.143 69.014ZM222.503 68.978C222.503 67.97 222.701 67.076 223.097 66.296C223.505 65.516 224.057 64.916 224.753 64.496C225.449 64.076 226.223 63.866 227.075 63.866C227.723 63.866 228.341 64.01 228.929 64.298C229.517 64.574 229.985 64.946 230.333 65.414V60.68H232.889V74H230.333V72.524C230.021 73.016 229.583 73.412 229.019 73.712C228.455 74.012 227.801 74.162 227.057 74.162C226.217 74.162 225.449 73.946 224.753 73.514C224.057 73.082 223.505 72.476 223.097 71.696C222.701 70.904 222.503 69.998 222.503 68.978ZM230.351 69.014C230.351 68.402 230.231 67.88 229.991 67.448C229.751 67.004 229.427 66.668 229.019 66.44C228.611 66.2 228.173 66.08 227.705 66.08C227.237 66.08 226.805 66.194 226.409 66.422C226.013 66.65 225.689 66.986 225.437 67.43C225.197 67.862 225.077 68.378 225.077 68.978C225.077 69.578 225.197 70.106 225.437 70.562C225.689 71.006 226.013 71.348 226.409 71.588C226.817 71.828 227.249 71.948 227.705 71.948C228.173 71.948 228.611 71.834 229.019 71.606C229.427 71.366 229.751 71.03 229.991 70.598C230.231 70.154 230.351 69.626 230.351 69.014ZM236.988 62.84C236.544 62.84 236.172 62.702 235.872 62.426C235.584 62.138 235.44 61.784 235.44 61.364C235.44 60.944 235.584 60.596 235.872 60.32C236.172 60.032 236.544 59.888 236.988 59.888C237.432 59.888 237.798 60.032 238.086 60.32C238.386 60.596 238.536 60.944 238.536 61.364C238.536 61.784 238.386 62.138 238.086 62.426C237.798 62.702 237.432 62.84 236.988 62.84ZM238.23 64.028V74H235.71V64.028H238.23ZM243.6 65.486C243.924 65.006 244.368 64.616 244.932 64.316C245.508 64.016 246.162 63.866 246.894 63.866C247.746 63.866 248.514 64.076 249.198 64.496C249.894 64.916 250.44 65.516 250.836 66.296C251.244 67.064 251.448 67.958 251.448 68.978C251.448 69.998 251.244 70.904 250.836 71.696C250.44 72.476 249.894 73.082 249.198 73.514C248.514 73.946 247.746 74.162 246.894 74.162C246.15 74.162 245.496 74.018 244.932 73.73C244.38 73.43 243.936 73.046 243.6 72.578V74H241.08V60.68H243.6V65.486ZM248.874 68.978C248.874 68.378 248.748 67.862 248.496 67.43C248.256 66.986 247.932 66.65 247.524 66.422C247.128 66.194 246.696 66.08 246.228 66.08C245.772 66.08 245.34 66.2 244.932 66.44C244.536 66.668 244.212 67.004 243.96 67.448C243.72 67.892 243.6 68.414 243.6 69.014C243.6 69.614 243.72 70.136 243.96 70.58C244.212 71.024 244.536 71.366 244.932 71.606C245.34 71.834 245.772 71.948 246.228 71.948C246.696 71.948 247.128 71.828 247.524 71.588C247.932 71.348 248.256 71.006 248.496 70.562C248.748 70.118 248.874 69.59 248.874 68.978ZM252.991 68.978C252.991 67.97 253.189 67.076 253.585 66.296C253.993 65.516 254.539 64.916 255.223 64.496C255.919 64.076 256.693 63.866 257.545 63.866C258.289 63.866 258.937 64.016 259.489 64.316C260.053 64.616 260.503 64.994 260.839 65.45V64.028H263.377V74H260.839V72.542C260.515 73.01 260.065 73.4 259.489 73.712C258.925 74.012 258.271 74.162 257.527 74.162C256.687 74.162 255.919 73.946 255.223 73.514C254.539 73.082 253.993 72.476 253.585 71.696C253.189 70.904 252.991 69.998 252.991 68.978ZM260.839 69.014C260.839 68.402 260.719 67.88 260.479 67.448C260.239 67.004 259.915 66.668 259.507 66.44C259.099 66.2 258.661 66.08 258.193 66.08C257.725 66.08 257.293 66.194 256.897 66.422C256.501 66.65 256.177 66.986 255.925 67.43C255.685 67.862 255.565 68.378 255.565 68.978C255.565 69.578 255.685 70.106 255.925 70.562C256.177 71.006 256.501 71.348 256.897 71.588C257.305 71.828 257.737 71.948 258.193 71.948C258.661 71.948 259.099 71.834 259.507 71.606C259.915 71.366 260.239 71.03 260.479 70.598C260.719 70.154 260.839 69.626 260.839 69.014ZM271.725 63.884C272.913 63.884 273.873 64.262 274.605 65.018C275.337 65.762 275.703 66.806 275.703 68.15V74H273.183V68.492C273.183 67.7 272.985 67.094 272.589 66.674C272.193 66.242 271.653 66.026 270.969 66.026C270.273 66.026 269.721 66.242 269.313 66.674C268.917 67.094 268.719 67.7 268.719 68.492V74H266.199V64.028H268.719V65.27C269.055 64.838 269.481 64.502 269.997 64.262C270.525 64.01 271.101 63.884 271.725 63.884ZM281.393 66.098V70.922C281.393 71.258 281.471 71.504 281.627 71.66C281.795 71.804 282.071 71.876 282.455 71.876H283.625V74H282.041C279.917 74 278.855 72.968 278.855 70.904V66.098H277.667V64.028H278.855V61.562H281.393V64.028H283.625V66.098H281.393ZM295.212 64.028V74H292.674V72.74C292.35 73.172 291.924 73.514 291.396 73.766C290.88 74.006 290.316 74.126 289.704 74.126C288.924 74.126 288.234 73.964 287.634 73.64C287.034 73.304 286.56 72.818 286.212 72.182C285.876 71.534 285.708 70.766 285.708 69.878V64.028H288.228V69.518C288.228 70.31 288.426 70.922 288.822 71.354C289.218 71.774 289.758 71.984 290.442 71.984C291.138 71.984 291.684 71.774 292.08 71.354C292.476 70.922 292.674 70.31 292.674 69.518V64.028H295.212Z" fill="#545567"/>
<g filter="url(#filter1_d_152_74)">
<rect x="40" y="32" width="50.7141" height="55.9983" rx="14" fill="#F3627C"/>
</g>
<rect x="48.3421" y="41.7997" width="34.7649" height="36.3989" rx="8" fill="white"/>
<path d="M65.3571 50.1996V69.799" stroke="#F25471" stroke-width="4" stroke-linecap="round"/>
<path d="M59.0178 53.6995L59.0178 69.799" stroke="#F25471" stroke-width="4" stroke-linecap="round"/>
<path d="M71.6963 57.8994V69.7991" stroke="#F25471" stroke-width="4" stroke-linecap="round"/>
<defs>
<filter id="filter0_b_152_74" x="4" y="-6" width="400" height="133" filterUnits="userSpaceOnUse" color-interpolation-filters="sRGB">
<feFlood flood-opacity="0" result="BackgroundImageFix"/>
<feGaussianBlur in="BackgroundImageFix" stdDeviation="10"/>
<feComposite in2="SourceAlpha" operator="in" result="effect1_backgroundBlur_152_74"/>
<feBlend mode="normal" in="SourceGraphic" in2="effect1_backgroundBlur_152_74" result="shape"/>
</filter>
<filter id="filter1_d_152_74" x="0" y="0" width="130.714" height="135.998" filterUnits="userSpaceOnUse" color-interpolation-filters="sRGB">
<feFlood flood-opacity="0" result="BackgroundImageFix"/>
<feColorMatrix in="SourceAlpha" type="matrix" values="0 0 0 0 0 0 0 0 0 0 0 0 0 0 0 0 0 0 127 0" result="hardAlpha"/>
<feOffset dy="8"/>
<feGaussianBlur stdDeviation="20"/>
<feColorMatrix type="matrix" values="0 0 0 0 0.825 0 0 0 0 0.300438 0 0 0 0 0.396718 0 0 0 0.26 0"/>
<feBlend mode="normal" in2="BackgroundImageFix" result="effect1_dropShadow_152_74"/>
<feBlend mode="normal" in="SourceGraphic" in2="effect1_dropShadow_152_74" result="shape"/>
</filter>
</defs>
</svg>
