<svg width="372" height="93" viewBox="0 0 372 93" fill="none" xmlns="http://www.w3.org/2000/svg">
<g filter="url(#filter0_b_152_75)">
<rect width="360" height="93" rx="20" fill="white" fill-opacity="0.8"/>
</g>
<path d="M100.949 29.5586V30.2324C100.949 31.3132 100.803 32.2832 100.51 33.1426C100.217 34.002 99.8034 34.7344 99.2695 35.3398C98.7357 35.9388 98.0977 36.3978 97.3555 36.7168C96.6198 37.0358 95.8027 37.1953 94.9043 37.1953C94.0124 37.1953 93.1953 37.0358 92.4531 36.7168C91.7174 36.3978 91.0794 35.9388 90.5391 35.3398C89.9987 34.7344 89.5788 34.002 89.2793 33.1426C88.9863 32.2832 88.8398 31.3132 88.8398 30.2324V29.5586C88.8398 28.4714 88.9863 27.5013 89.2793 26.6484C89.5723 25.7891 89.9857 25.0566 90.5195 24.4512C91.0599 23.8457 91.6979 23.3835 92.4336 23.0645C93.1758 22.7454 93.9928 22.5859 94.8848 22.5859C95.7832 22.5859 96.6003 22.7454 97.3359 23.0645C98.0781 23.3835 98.7161 23.8457 99.25 24.4512C99.7904 25.0566 100.207 25.7891 100.5 26.6484C100.799 27.5013 100.949 28.4714 100.949 29.5586ZM97.9902 30.2324V29.5391C97.9902 28.7839 97.9219 28.1198 97.7852 27.5469C97.6484 26.974 97.4466 26.4922 97.1797 26.1016C96.9128 25.7109 96.5872 25.418 96.2031 25.2227C95.819 25.0208 95.3796 24.9199 94.8848 24.9199C94.39 24.9199 93.9505 25.0208 93.5664 25.2227C93.1888 25.418 92.8665 25.7109 92.5996 26.1016C92.3392 26.4922 92.1406 26.974 92.0039 27.5469C91.8672 28.1198 91.7988 28.7839 91.7988 29.5391V30.2324C91.7988 30.9811 91.8672 31.6452 92.0039 32.2246C92.1406 32.7975 92.3424 33.2826 92.6094 33.6797C92.8763 34.0703 93.2018 34.3665 93.5859 34.5684C93.9701 34.7702 94.4095 34.8711 94.9043 34.8711C95.3991 34.8711 95.8385 34.7702 96.2227 34.5684C96.6068 34.3665 96.929 34.0703 97.1895 33.6797C97.4499 33.2826 97.6484 32.7975 97.7852 32.2246C97.9219 31.6452 97.9902 30.9811 97.9902 30.2324ZM106.037 28.6895V37H103.224V26.4336H105.861L106.037 28.6895ZM105.627 31.3457H104.865C104.865 30.5645 104.966 29.8613 105.168 29.2363C105.369 28.6048 105.653 28.0677 106.017 27.625C106.382 27.1758 106.815 26.834 107.316 26.5996C107.824 26.3587 108.39 26.2383 109.015 26.2383C109.51 26.2383 109.962 26.3099 110.373 26.4531C110.783 26.5964 111.134 26.8242 111.427 27.1367C111.727 27.4492 111.955 27.8626 112.111 28.377C112.274 28.8913 112.355 29.5195 112.355 30.2617V37H109.523V30.252C109.523 29.7832 109.458 29.4186 109.328 29.1582C109.198 28.8978 109.005 28.7155 108.752 28.6113C108.504 28.5007 108.198 28.4453 107.834 28.4453C107.456 28.4453 107.127 28.5202 106.847 28.6699C106.574 28.8197 106.346 29.028 106.164 29.2949C105.988 29.5553 105.854 29.8613 105.763 30.2129C105.672 30.5645 105.627 30.9421 105.627 31.3457ZM117.862 22V37H115.04V22H117.862ZM123.555 26.4336V37H120.733V26.4336H123.555ZM120.557 23.6797C120.557 23.2695 120.701 22.931 120.987 22.6641C121.274 22.3971 121.658 22.2637 122.139 22.2637C122.615 22.2637 122.996 22.3971 123.282 22.6641C123.575 22.931 123.721 23.2695 123.721 23.6797C123.721 24.0898 123.575 24.4284 123.282 24.6953C122.996 24.9622 122.615 25.0957 122.139 25.0957C121.658 25.0957 121.274 24.9622 120.987 24.6953C120.701 24.4284 120.557 24.0898 120.557 23.6797ZM129.034 28.6895V37H126.221V26.4336H128.858L129.034 28.6895ZM128.623 31.3457H127.862C127.862 30.5645 127.963 29.8613 128.164 29.2363C128.366 28.6048 128.649 28.0677 129.014 27.625C129.379 27.1758 129.812 26.834 130.313 26.5996C130.821 26.3587 131.387 26.2383 132.012 26.2383C132.507 26.2383 132.959 26.3099 133.37 26.4531C133.78 26.5964 134.131 26.8242 134.424 27.1367C134.724 27.4492 134.952 27.8626 135.108 28.377C135.271 28.8913 135.352 29.5195 135.352 30.2617V37H132.52V30.252C132.52 29.7832 132.455 29.4186 132.325 29.1582C132.194 28.8978 132.002 28.7155 131.748 28.6113C131.501 28.5007 131.195 28.4453 130.83 28.4453C130.453 28.4453 130.124 28.5202 129.844 28.6699C129.571 28.8197 129.343 29.028 129.161 29.2949C128.985 29.5553 128.851 29.8613 128.76 30.2129C128.669 30.5645 128.623 30.9421 128.623 31.3457ZM142.754 37.1953C141.934 37.1953 141.198 37.0651 140.547 36.8047C139.896 36.5378 139.342 36.1699 138.887 35.7012C138.438 35.2324 138.092 34.6888 137.852 34.0703C137.611 33.4453 137.49 32.7812 137.49 32.0781V31.6875C137.49 30.8867 137.604 30.1543 137.832 29.4902C138.06 28.8262 138.385 28.25 138.809 27.7617C139.238 27.2734 139.759 26.8991 140.371 26.6387C140.983 26.3717 141.673 26.2383 142.441 26.2383C143.19 26.2383 143.854 26.362 144.434 26.6094C145.013 26.8568 145.498 27.2083 145.889 27.6641C146.286 28.1198 146.585 28.6667 146.787 29.3047C146.989 29.9362 147.09 30.6393 147.09 31.4141V32.5859H138.691V30.7109H144.326V30.4961C144.326 30.1055 144.255 29.7572 144.111 29.4512C143.975 29.1387 143.766 28.8913 143.486 28.709C143.206 28.5267 142.848 28.4355 142.412 28.4355C142.041 28.4355 141.722 28.5169 141.455 28.6797C141.188 28.8424 140.97 29.0703 140.801 29.3633C140.638 29.6562 140.514 30.0013 140.43 30.3984C140.352 30.7891 140.312 31.2188 140.312 31.6875V32.0781C140.312 32.5013 140.371 32.8919 140.488 33.25C140.612 33.6081 140.785 33.9173 141.006 34.1777C141.234 34.4382 141.507 34.64 141.826 34.7832C142.152 34.9264 142.52 34.998 142.93 34.998C143.438 34.998 143.91 34.9004 144.346 34.7051C144.788 34.5033 145.169 34.2005 145.488 33.7969L146.855 35.2812C146.634 35.6003 146.331 35.9062 145.947 36.1992C145.57 36.4922 145.114 36.7331 144.58 36.9219C144.046 37.1042 143.438 37.1953 142.754 37.1953ZM160.712 34.6953V22H163.544V37H160.995L160.712 34.6953ZM154.032 31.8438V31.6387C154.032 30.8314 154.124 30.099 154.306 29.4414C154.488 28.7773 154.755 28.2077 155.107 27.7324C155.458 27.2572 155.891 26.8893 156.405 26.6289C156.92 26.3685 157.506 26.2383 158.163 26.2383C158.782 26.2383 159.322 26.3685 159.784 26.6289C160.253 26.8893 160.65 27.2604 160.976 27.7422C161.308 28.2174 161.575 28.7806 161.777 29.4316C161.978 30.0762 162.125 30.7826 162.216 31.5508V32C162.125 32.7357 161.978 33.4193 161.777 34.0508C161.575 34.6823 161.308 35.2357 160.976 35.7109C160.65 36.1797 160.253 36.5443 159.784 36.8047C159.316 37.0651 158.769 37.1953 158.144 37.1953C157.486 37.1953 156.9 37.0618 156.386 36.7949C155.878 36.528 155.448 36.1536 155.097 35.6719C154.752 35.1901 154.488 34.6237 154.306 33.9727C154.124 33.3216 154.032 32.612 154.032 31.8438ZM156.845 31.6387V31.8438C156.845 32.2799 156.877 32.6868 156.943 33.0645C157.014 33.4421 157.128 33.7773 157.284 34.0703C157.447 34.3568 157.655 34.5814 157.909 34.7441C158.17 34.9004 158.486 34.9785 158.857 34.9785C159.338 34.9785 159.736 34.8711 160.048 34.6562C160.361 34.4349 160.598 34.1322 160.761 33.748C160.93 33.3639 161.028 32.9212 161.054 32.4199V31.1406C161.034 30.7305 160.976 30.3626 160.878 30.0371C160.787 29.7051 160.65 29.4219 160.468 29.1875C160.292 28.9531 160.071 28.7708 159.804 28.6406C159.543 28.5104 159.234 28.4453 158.876 28.4453C158.512 28.4453 158.199 28.5299 157.939 28.6992C157.678 28.862 157.467 29.0866 157.304 29.373C157.148 29.6595 157.03 29.998 156.952 30.3887C156.881 30.7728 156.845 31.1895 156.845 31.6387ZM171.845 34.6172V29.9102C171.845 29.5716 171.789 29.2819 171.679 29.041C171.568 28.7936 171.395 28.6016 171.161 28.4648C170.933 28.3281 170.637 28.2598 170.272 28.2598C169.96 28.2598 169.69 28.3151 169.462 28.4258C169.234 28.5299 169.058 28.6829 168.934 28.8848C168.811 29.0801 168.749 29.3112 168.749 29.5781H165.936C165.936 29.1289 166.04 28.7025 166.249 28.2988C166.457 27.8952 166.76 27.5404 167.157 27.2344C167.554 26.9219 168.026 26.6777 168.573 26.502C169.126 26.3262 169.745 26.2383 170.429 26.2383C171.249 26.2383 171.978 26.375 172.616 26.6484C173.254 26.9219 173.755 27.332 174.12 27.8789C174.491 28.4258 174.677 29.1094 174.677 29.9297V34.4512C174.677 35.0306 174.712 35.5059 174.784 35.877C174.856 36.2415 174.96 36.5605 175.096 36.834V37H172.255C172.118 36.7135 172.014 36.3555 171.942 35.9258C171.877 35.4896 171.845 35.0534 171.845 34.6172ZM172.216 30.5645L172.235 32.1562H170.663C170.292 32.1562 169.97 32.1986 169.696 32.2832C169.423 32.3678 169.198 32.4883 169.022 32.6445C168.846 32.7943 168.716 32.9701 168.632 33.1719C168.554 33.3737 168.514 33.5951 168.514 33.8359C168.514 34.0768 168.57 34.2949 168.68 34.4902C168.791 34.679 168.951 34.8288 169.159 34.9395C169.367 35.0436 169.611 35.0957 169.891 35.0957C170.315 35.0957 170.682 35.0111 170.995 34.8418C171.307 34.6725 171.548 34.4642 171.718 34.2168C171.893 33.9694 171.985 33.735 171.991 33.5137L172.733 34.7051C172.629 34.972 172.486 35.2487 172.304 35.5352C172.128 35.8216 171.903 36.0918 171.63 36.3457C171.356 36.5931 171.027 36.7982 170.643 36.9609C170.259 37.1172 169.804 37.1953 169.276 37.1953C168.606 37.1953 167.997 37.0618 167.45 36.7949C166.91 36.5215 166.48 36.1471 166.161 35.6719C165.848 35.1901 165.692 34.6432 165.692 34.0312C165.692 33.4779 165.796 32.9863 166.005 32.5566C166.213 32.127 166.519 31.7656 166.923 31.4727C167.333 31.1732 167.844 30.9486 168.456 30.7988C169.068 30.6426 169.777 30.5645 170.585 30.5645H172.216ZM179.998 28.6895V37H177.186V26.4336H179.823L179.998 28.6895ZM179.588 31.3457H178.827C178.827 30.5645 178.927 29.8613 179.129 29.2363C179.331 28.6048 179.614 28.0677 179.979 27.625C180.343 27.1758 180.776 26.834 181.278 26.5996C181.786 26.3587 182.352 26.2383 182.977 26.2383C183.472 26.2383 183.924 26.3099 184.334 26.4531C184.745 26.5964 185.096 26.8242 185.389 27.1367C185.689 27.4492 185.916 27.8626 186.073 28.377C186.235 28.8913 186.317 29.5195 186.317 30.2617V37H183.485V30.252C183.485 29.7832 183.42 29.4186 183.289 29.1582C183.159 28.8978 182.967 28.7155 182.713 28.6113C182.466 28.5007 182.16 28.4453 181.795 28.4453C181.418 28.4453 181.089 28.5202 180.809 28.6699C180.536 28.8197 180.308 29.028 180.125 29.2949C179.95 29.5553 179.816 29.8613 179.725 30.2129C179.634 30.5645 179.588 30.9421 179.588 31.3457ZM206.091 29.5586V30.2324C206.091 31.3132 205.945 32.2832 205.652 33.1426C205.359 34.002 204.946 34.7344 204.412 35.3398C203.878 35.9388 203.24 36.3978 202.498 36.7168C201.762 37.0358 200.945 37.1953 200.046 37.1953C199.155 37.1953 198.338 37.0358 197.595 36.7168C196.86 36.3978 196.222 35.9388 195.681 35.3398C195.141 34.7344 194.721 34.002 194.421 33.1426C194.129 32.2832 193.982 31.3132 193.982 30.2324V29.5586C193.982 28.4714 194.129 27.5013 194.421 26.6484C194.714 25.7891 195.128 25.0566 195.662 24.4512C196.202 23.8457 196.84 23.3835 197.576 23.0645C198.318 22.7454 199.135 22.5859 200.027 22.5859C200.925 22.5859 201.742 22.7454 202.478 23.0645C203.22 23.3835 203.858 23.8457 204.392 24.4512C204.933 25.0566 205.349 25.7891 205.642 26.6484C205.942 27.5013 206.091 28.4714 206.091 29.5586ZM203.132 30.2324V29.5391C203.132 28.7839 203.064 28.1198 202.927 27.5469C202.791 26.974 202.589 26.4922 202.322 26.1016C202.055 25.7109 201.729 25.418 201.345 25.2227C200.961 25.0208 200.522 24.9199 200.027 24.9199C199.532 24.9199 199.093 25.0208 198.709 25.2227C198.331 25.418 198.009 25.7109 197.742 26.1016C197.481 26.4922 197.283 26.974 197.146 27.5469C197.009 28.1198 196.941 28.7839 196.941 29.5391V30.2324C196.941 30.9811 197.009 31.6452 197.146 32.2246C197.283 32.7975 197.485 33.2826 197.752 33.6797C198.018 34.0703 198.344 34.3665 198.728 34.5684C199.112 34.7702 199.552 34.8711 200.046 34.8711C200.541 34.8711 200.981 34.7702 201.365 34.5684C201.749 34.3665 202.071 34.0703 202.332 33.6797C202.592 33.2826 202.791 32.7975 202.927 32.2246C203.064 31.6452 203.132 30.9811 203.132 30.2324ZM212.009 37H209.177V25.4961C209.177 24.6953 209.333 24.0215 209.646 23.4746C209.965 22.9212 210.411 22.5046 210.984 22.2246C211.563 21.9382 212.25 21.7949 213.044 21.7949C213.305 21.7949 213.555 21.8145 213.796 21.8535C214.037 21.8861 214.271 21.9284 214.499 21.9805L214.47 24.0996C214.346 24.0671 214.216 24.0443 214.079 24.0312C213.943 24.0182 213.783 24.0117 213.601 24.0117C213.262 24.0117 212.973 24.0703 212.732 24.1875C212.497 24.2982 212.318 24.4642 212.195 24.6855C212.071 24.9069 212.009 25.1771 212.009 25.4961V37ZM214.157 26.4336V28.4258H207.605V26.4336H214.157ZM218.337 37H215.525V25.623C215.525 24.7962 215.694 24.0996 216.032 23.5332C216.377 22.9603 216.876 22.5273 217.527 22.2344C218.178 21.9414 218.962 21.7949 219.88 21.7949C220.258 21.7949 220.736 21.8145 221.316 21.8535C221.895 21.8861 222.484 21.9284 223.083 21.9805C223.689 22.026 224.223 22.0749 224.685 22.127L223.513 24.3438C222.92 24.2396 222.354 24.1582 221.814 24.0996C221.273 24.041 220.756 24.0117 220.261 24.0117C219.851 24.0117 219.502 24.0736 219.216 24.1973C218.93 24.321 218.711 24.5033 218.562 24.7441C218.412 24.9785 218.337 25.2715 218.337 25.623V37ZM221.853 37V22.127H224.685V37H221.853ZM220.456 26.4336V28.4258H213.943V26.4336H220.456ZM230.387 26.4336V37H227.565V26.4336H230.387ZM227.389 23.6797C227.389 23.2695 227.533 22.931 227.819 22.6641C228.106 22.3971 228.49 22.2637 228.971 22.2637C229.447 22.2637 229.828 22.3971 230.114 22.6641C230.407 22.931 230.554 23.2695 230.554 23.6797C230.554 24.0898 230.407 24.4284 230.114 24.6953C229.828 24.9622 229.447 25.0957 228.971 25.0957C228.49 25.0957 228.106 24.9622 227.819 24.6953C227.533 24.4284 227.389 24.0898 227.389 23.6797ZM235.866 28.6895V37H233.053V26.4336H235.69L235.866 28.6895ZM235.455 31.3457H234.694C234.694 30.5645 234.795 29.8613 234.996 29.2363C235.198 28.6048 235.482 28.0677 235.846 27.625C236.211 27.1758 236.644 26.834 237.145 26.5996C237.653 26.3587 238.219 26.2383 238.844 26.2383C239.339 26.2383 239.791 26.3099 240.202 26.4531C240.612 26.5964 240.963 26.8242 241.256 27.1367C241.556 27.4492 241.784 27.8626 241.94 28.377C242.103 28.8913 242.184 29.5195 242.184 30.2617V37H239.352V30.252C239.352 29.7832 239.287 29.4186 239.157 29.1582C239.026 28.8978 238.834 28.7155 238.58 28.6113C238.333 28.5007 238.027 28.4453 237.663 28.4453C237.285 28.4453 236.956 28.5202 236.676 28.6699C236.403 28.8197 236.175 29.028 235.993 29.2949C235.817 29.5553 235.683 29.8613 235.592 30.2129C235.501 30.5645 235.455 30.9421 235.455 31.3457ZM249.586 37.1953C248.766 37.1953 248.03 37.0651 247.379 36.8047C246.728 36.5378 246.174 36.1699 245.719 35.7012C245.27 35.2324 244.924 34.6888 244.684 34.0703C244.443 33.4453 244.322 32.7812 244.322 32.0781V31.6875C244.322 30.8867 244.436 30.1543 244.664 29.4902C244.892 28.8262 245.217 28.25 245.641 27.7617C246.07 27.2734 246.591 26.8991 247.203 26.6387C247.815 26.3717 248.505 26.2383 249.273 26.2383C250.022 26.2383 250.686 26.362 251.266 26.6094C251.845 26.8568 252.33 27.2083 252.721 27.6641C253.118 28.1198 253.417 28.6667 253.619 29.3047C253.821 29.9362 253.922 30.6393 253.922 31.4141V32.5859H245.523V30.7109H251.158V30.4961C251.158 30.1055 251.087 29.7572 250.943 29.4512C250.807 29.1387 250.598 28.8913 250.318 28.709C250.038 28.5267 249.68 28.4355 249.244 28.4355C248.873 28.4355 248.554 28.5169 248.287 28.6797C248.02 28.8424 247.802 29.0703 247.633 29.3633C247.47 29.6562 247.346 30.0013 247.262 30.3984C247.184 30.7891 247.145 31.2188 247.145 31.6875V32.0781C247.145 32.5013 247.203 32.8919 247.32 33.25C247.444 33.6081 247.617 33.9173 247.838 34.1777C248.066 34.4382 248.339 34.64 248.658 34.7832C248.984 34.9264 249.352 34.998 249.762 34.998C250.27 34.998 250.742 34.9004 251.178 34.7051C251.62 34.5033 252.001 34.2005 252.32 33.7969L253.688 35.2812C253.466 35.6003 253.163 35.9062 252.779 36.1992C252.402 36.4922 251.946 36.7331 251.412 36.9219C250.878 37.1042 250.27 37.1953 249.586 37.1953Z" fill="#595959"/>
<path d="M96.334 65L91.762 59.402V65H89.242V52.436H91.762V58.07L96.334 52.436H99.376L94.192 58.664L99.52 65H96.334ZM100.89 59.978C100.89 58.97 101.088 58.076 101.484 57.296C101.892 56.516 102.438 55.916 103.122 55.496C103.818 55.076 104.592 54.866 105.444 54.866C106.188 54.866 106.836 55.016 107.388 55.316C107.952 55.616 108.402 55.994 108.738 56.45V55.028H111.276V65H108.738V63.542C108.414 64.01 107.964 64.4 107.388 64.712C106.824 65.012 106.17 65.162 105.426 65.162C104.586 65.162 103.818 64.946 103.122 64.514C102.438 64.082 101.892 63.476 101.484 62.696C101.088 61.904 100.89 60.998 100.89 59.978ZM108.738 60.014C108.738 59.402 108.618 58.88 108.378 58.448C108.138 58.004 107.814 57.668 107.406 57.44C106.998 57.2 106.56 57.08 106.092 57.08C105.624 57.08 105.192 57.194 104.796 57.422C104.4 57.65 104.076 57.986 103.824 58.43C103.584 58.862 103.464 59.378 103.464 59.978C103.464 60.578 103.584 61.106 103.824 61.562C104.076 62.006 104.4 62.348 104.796 62.588C105.204 62.828 105.636 62.948 106.092 62.948C106.56 62.948 106.998 62.834 107.406 62.606C107.814 62.366 108.138 62.03 108.378 61.598C108.618 61.154 108.738 60.626 108.738 60.014ZM116.617 56.468C116.941 56.012 117.385 55.634 117.949 55.334C118.525 55.022 119.179 54.866 119.911 54.866C120.763 54.866 121.531 55.076 122.215 55.496C122.911 55.916 123.457 56.516 123.853 57.296C124.261 58.064 124.465 58.958 124.465 59.978C124.465 60.998 124.261 61.904 123.853 62.696C123.457 63.476 122.911 64.082 122.215 64.514C121.531 64.946 120.763 65.162 119.911 65.162C119.179 65.162 118.531 65.012 117.967 64.712C117.415 64.412 116.965 64.034 116.617 63.578V69.752H114.097V55.028H116.617V56.468ZM121.891 59.978C121.891 59.378 121.765 58.862 121.513 58.43C121.273 57.986 120.949 57.65 120.541 57.422C120.145 57.194 119.713 57.08 119.245 57.08C118.789 57.08 118.357 57.2 117.949 57.44C117.553 57.668 117.229 58.004 116.977 58.448C116.737 58.892 116.617 59.414 116.617 60.014C116.617 60.614 116.737 61.136 116.977 61.58C117.229 62.024 117.553 62.366 117.949 62.606C118.357 62.834 118.789 62.948 119.245 62.948C119.713 62.948 120.145 62.828 120.541 62.588C120.949 62.348 121.273 62.006 121.513 61.562C121.765 61.118 121.891 60.59 121.891 59.978ZM126.008 59.978C126.008 58.97 126.206 58.076 126.602 57.296C127.01 56.516 127.556 55.916 128.24 55.496C128.936 55.076 129.71 54.866 130.562 54.866C131.306 54.866 131.954 55.016 132.506 55.316C133.07 55.616 133.52 55.994 133.856 56.45V55.028H136.394V65H133.856V63.542C133.532 64.01 133.082 64.4 132.506 64.712C131.942 65.012 131.288 65.162 130.544 65.162C129.704 65.162 128.936 64.946 128.24 64.514C127.556 64.082 127.01 63.476 126.602 62.696C126.206 61.904 126.008 60.998 126.008 59.978ZM133.856 60.014C133.856 59.402 133.736 58.88 133.496 58.448C133.256 58.004 132.932 57.668 132.524 57.44C132.116 57.2 131.678 57.08 131.21 57.08C130.742 57.08 130.31 57.194 129.914 57.422C129.518 57.65 129.194 57.986 128.942 58.43C128.702 58.862 128.582 59.378 128.582 59.978C128.582 60.578 128.702 61.106 128.942 61.562C129.194 62.006 129.518 62.348 129.914 62.588C130.322 62.828 130.754 62.948 131.21 62.948C131.678 62.948 132.116 62.834 132.524 62.606C132.932 62.366 133.256 62.03 133.496 61.598C133.736 61.154 133.856 60.626 133.856 60.014ZM144.741 54.884C145.929 54.884 146.889 55.262 147.621 56.018C148.353 56.762 148.719 57.806 148.719 59.15V65H146.199V59.492C146.199 58.7 146.001 58.094 145.605 57.674C145.209 57.242 144.669 57.026 143.985 57.026C143.289 57.026 142.737 57.242 142.329 57.674C141.933 58.094 141.735 58.7 141.735 59.492V65H139.215V55.028H141.735V56.27C142.071 55.838 142.497 55.502 143.013 55.262C143.541 55.01 144.117 54.884 144.741 54.884ZM153.996 56.468C154.32 56.012 154.764 55.634 155.328 55.334C155.904 55.022 156.558 54.866 157.29 54.866C158.142 54.866 158.91 55.076 159.594 55.496C160.29 55.916 160.836 56.516 161.232 57.296C161.64 58.064 161.844 58.958 161.844 59.978C161.844 60.998 161.64 61.904 161.232 62.696C160.836 63.476 160.29 64.082 159.594 64.514C158.91 64.946 158.142 65.162 157.29 65.162C156.558 65.162 155.91 65.012 155.346 64.712C154.794 64.412 154.344 64.034 153.996 63.578V69.752H151.476V55.028H153.996V56.468ZM159.27 59.978C159.27 59.378 159.144 58.862 158.892 58.43C158.652 57.986 158.328 57.65 157.92 57.422C157.524 57.194 157.092 57.08 156.624 57.08C156.168 57.08 155.736 57.2 155.328 57.44C154.932 57.668 154.608 58.004 154.356 58.448C154.116 58.892 153.996 59.414 153.996 60.014C153.996 60.614 154.116 61.136 154.356 61.58C154.608 62.024 154.932 62.366 155.328 62.606C155.736 62.834 156.168 62.948 156.624 62.948C157.092 62.948 157.524 62.828 157.92 62.588C158.328 62.348 158.652 62.006 158.892 61.562C159.144 61.118 159.27 60.59 159.27 59.978ZM173.449 55.028V65H170.911V63.74C170.587 64.172 170.161 64.514 169.633 64.766C169.117 65.006 168.553 65.126 167.941 65.126C167.161 65.126 166.471 64.964 165.871 64.64C165.271 64.304 164.797 63.818 164.449 63.182C164.113 62.534 163.945 61.766 163.945 60.878V55.028H166.465V60.518C166.465 61.31 166.663 61.922 167.059 62.354C167.455 62.774 167.995 62.984 168.679 62.984C169.375 62.984 169.921 62.774 170.317 62.354C170.713 61.922 170.911 61.31 170.911 60.518V55.028H173.449ZM181.821 54.884C183.009 54.884 183.969 55.262 184.701 56.018C185.433 56.762 185.799 57.806 185.799 59.15V65H183.279V59.492C183.279 58.7 183.081 58.094 182.685 57.674C182.289 57.242 181.749 57.026 181.065 57.026C180.369 57.026 179.817 57.242 179.409 57.674C179.013 58.094 178.815 58.7 178.815 59.492V65H176.295V55.028H178.815V56.27C179.151 55.838 179.577 55.502 180.093 55.262C180.621 55.01 181.197 54.884 181.821 54.884ZM192.557 59.978C192.557 58.97 192.755 58.076 193.151 57.296C193.559 56.516 194.111 55.916 194.807 55.496C195.503 55.076 196.277 54.866 197.129 54.866C197.777 54.866 198.395 55.01 198.983 55.298C199.571 55.574 200.039 55.946 200.387 56.414V51.68H202.943V65H200.387V63.524C200.075 64.016 199.637 64.412 199.073 64.712C198.509 65.012 197.855 65.162 197.111 65.162C196.271 65.162 195.503 64.946 194.807 64.514C194.111 64.082 193.559 63.476 193.151 62.696C192.755 61.904 192.557 60.998 192.557 59.978ZM200.405 60.014C200.405 59.402 200.285 58.88 200.045 58.448C199.805 58.004 199.481 57.668 199.073 57.44C198.665 57.2 198.227 57.08 197.759 57.08C197.291 57.08 196.859 57.194 196.463 57.422C196.067 57.65 195.743 57.986 195.491 58.43C195.251 58.862 195.131 59.378 195.131 59.978C195.131 60.578 195.251 61.106 195.491 61.562C195.743 62.006 196.067 62.348 196.463 62.588C196.871 62.828 197.303 62.948 197.759 62.948C198.227 62.948 198.665 62.834 199.073 62.606C199.481 62.366 199.805 62.03 200.045 61.598C200.285 61.154 200.405 60.626 200.405 60.014ZM205.116 59.978C205.116 58.97 205.314 58.076 205.71 57.296C206.118 56.516 206.664 55.916 207.348 55.496C208.044 55.076 208.818 54.866 209.67 54.866C210.414 54.866 211.062 55.016 211.614 55.316C212.178 55.616 212.628 55.994 212.964 56.45V55.028H215.502V65H212.964V63.542C212.64 64.01 212.19 64.4 211.614 64.712C211.05 65.012 210.396 65.162 209.652 65.162C208.812 65.162 208.044 64.946 207.348 64.514C206.664 64.082 206.118 63.476 205.71 62.696C205.314 61.904 205.116 60.998 205.116 59.978ZM212.964 60.014C212.964 59.402 212.844 58.88 212.604 58.448C212.364 58.004 212.04 57.668 211.632 57.44C211.224 57.2 210.786 57.08 210.318 57.08C209.85 57.08 209.418 57.194 209.022 57.422C208.626 57.65 208.302 57.986 208.05 58.43C207.81 58.862 207.69 59.378 207.69 59.978C207.69 60.578 207.81 61.106 208.05 61.562C208.302 62.006 208.626 62.348 209.022 62.588C209.43 62.828 209.862 62.948 210.318 62.948C210.786 62.948 211.224 62.834 211.632 62.606C212.04 62.366 212.364 62.03 212.604 61.598C212.844 61.154 212.964 60.626 212.964 60.014ZM223.849 54.884C225.037 54.884 225.997 55.262 226.729 56.018C227.461 56.762 227.827 57.806 227.827 59.15V65H225.307V59.492C225.307 58.7 225.109 58.094 224.713 57.674C224.317 57.242 223.777 57.026 223.093 57.026C222.397 57.026 221.845 57.242 221.437 57.674C221.041 58.094 220.843 58.7 220.843 59.492V65H218.323V55.028H220.843V56.27C221.179 55.838 221.605 55.502 222.121 55.262C222.649 55.01 223.225 54.884 223.849 54.884ZM234.585 59.978C234.585 58.97 234.783 58.076 235.179 57.296C235.587 56.516 236.139 55.916 236.835 55.496C237.531 55.076 238.305 54.866 239.157 54.866C239.805 54.866 240.423 55.01 241.011 55.298C241.599 55.574 242.067 55.946 242.415 56.414V51.68H244.971V65H242.415V63.524C242.103 64.016 241.665 64.412 241.101 64.712C240.537 65.012 239.883 65.162 239.139 65.162C238.299 65.162 237.531 64.946 236.835 64.514C236.139 64.082 235.587 63.476 235.179 62.696C234.783 61.904 234.585 60.998 234.585 59.978ZM242.433 60.014C242.433 59.402 242.313 58.88 242.073 58.448C241.833 58.004 241.509 57.668 241.101 57.44C240.693 57.2 240.255 57.08 239.787 57.08C239.319 57.08 238.887 57.194 238.491 57.422C238.095 57.65 237.771 57.986 237.519 58.43C237.279 58.862 237.159 59.378 237.159 59.978C237.159 60.578 237.279 61.106 237.519 61.562C237.771 62.006 238.095 62.348 238.491 62.588C238.899 62.828 239.331 62.948 239.787 62.948C240.255 62.948 240.693 62.834 241.101 62.606C241.509 62.366 241.833 62.03 242.073 61.598C242.313 61.154 242.433 60.626 242.433 60.014ZM249.07 53.84C248.626 53.84 248.254 53.702 247.954 53.426C247.666 53.138 247.522 52.784 247.522 52.364C247.522 51.944 247.666 51.596 247.954 51.32C248.254 51.032 248.626 50.888 249.07 50.888C249.514 50.888 249.88 51.032 250.168 51.32C250.468 51.596 250.618 51.944 250.618 52.364C250.618 52.784 250.468 53.138 250.168 53.426C249.88 53.702 249.514 53.84 249.07 53.84ZM250.312 55.028V65H247.792V55.028H250.312ZM265.546 54.884C266.77 54.884 267.754 55.262 268.498 56.018C269.254 56.762 269.632 57.806 269.632 59.15V65H267.112V59.492C267.112 58.712 266.914 58.118 266.518 57.71C266.122 57.29 265.582 57.08 264.898 57.08C264.214 57.08 263.668 57.29 263.26 57.71C262.864 58.118 262.666 58.712 262.666 59.492V65H260.146V59.492C260.146 58.712 259.948 58.118 259.552 57.71C259.156 57.29 258.616 57.08 257.932 57.08C257.236 57.08 256.684 57.29 256.276 57.71C255.88 58.118 255.682 58.712 255.682 59.492V65H253.162V55.028H255.682V56.234C256.006 55.814 256.42 55.484 256.924 55.244C257.44 55.004 258.004 54.884 258.616 54.884C259.396 54.884 260.092 55.052 260.704 55.388C261.316 55.712 261.79 56.18 262.126 56.792C262.45 56.216 262.918 55.754 263.53 55.406C264.154 55.058 264.826 54.884 265.546 54.884ZM271.735 59.978C271.735 58.97 271.933 58.076 272.329 57.296C272.737 56.516 273.283 55.916 273.967 55.496C274.663 55.076 275.437 54.866 276.289 54.866C277.033 54.866 277.681 55.016 278.233 55.316C278.797 55.616 279.247 55.994 279.583 56.45V55.028H282.121V65H279.583V63.542C279.259 64.01 278.809 64.4 278.233 64.712C277.669 65.012 277.015 65.162 276.271 65.162C275.431 65.162 274.663 64.946 273.967 64.514C273.283 64.082 272.737 63.476 272.329 62.696C271.933 61.904 271.735 60.998 271.735 59.978ZM279.583 60.014C279.583 59.402 279.463 58.88 279.223 58.448C278.983 58.004 278.659 57.668 278.251 57.44C277.843 57.2 277.405 57.08 276.937 57.08C276.469 57.08 276.037 57.194 275.641 57.422C275.245 57.65 274.921 57.986 274.669 58.43C274.429 58.862 274.309 59.378 274.309 59.978C274.309 60.578 274.429 61.106 274.669 61.562C274.921 62.006 275.245 62.348 275.641 62.588C276.049 62.828 276.481 62.948 276.937 62.948C277.405 62.948 277.843 62.834 278.251 62.606C278.659 62.366 278.983 62.03 279.223 61.598C279.463 61.154 279.583 60.626 279.583 60.014ZM290.468 54.884C291.656 54.884 292.616 55.262 293.348 56.018C294.08 56.762 294.446 57.806 294.446 59.15V65H291.926V59.492C291.926 58.7 291.728 58.094 291.332 57.674C290.936 57.242 290.396 57.026 289.712 57.026C289.016 57.026 288.464 57.242 288.056 57.674C287.66 58.094 287.462 58.7 287.462 59.492V65H284.942V55.028H287.462V56.27C287.798 55.838 288.224 55.502 288.74 55.262C289.268 55.01 289.844 54.884 290.468 54.884ZM296.554 59.978C296.554 58.97 296.752 58.076 297.148 57.296C297.556 56.516 298.102 55.916 298.786 55.496C299.482 55.076 300.256 54.866 301.108 54.866C301.852 54.866 302.5 55.016 303.052 55.316C303.616 55.616 304.066 55.994 304.402 56.45V55.028H306.94V65H304.402V63.542C304.078 64.01 303.628 64.4 303.052 64.712C302.488 65.012 301.834 65.162 301.09 65.162C300.25 65.162 299.482 64.946 298.786 64.514C298.102 64.082 297.556 63.476 297.148 62.696C296.752 61.904 296.554 60.998 296.554 59.978ZM304.402 60.014C304.402 59.402 304.282 58.88 304.042 58.448C303.802 58.004 303.478 57.668 303.07 57.44C302.662 57.2 302.224 57.08 301.756 57.08C301.288 57.08 300.856 57.194 300.46 57.422C300.064 57.65 299.74 57.986 299.488 58.43C299.248 58.862 299.128 59.378 299.128 59.978C299.128 60.578 299.248 61.106 299.488 61.562C299.74 62.006 300.064 62.348 300.46 62.588C300.868 62.828 301.3 62.948 301.756 62.948C302.224 62.948 302.662 62.834 303.07 62.606C303.478 62.366 303.802 62.03 304.042 61.598C304.282 61.154 304.402 60.626 304.402 60.014ZM312.282 56.468C312.606 56.012 313.05 55.634 313.614 55.334C314.19 55.022 314.844 54.866 315.576 54.866C316.428 54.866 317.196 55.076 317.88 55.496C318.576 55.916 319.122 56.516 319.518 57.296C319.926 58.064 320.13 58.958 320.13 59.978C320.13 60.998 319.926 61.904 319.518 62.696C319.122 63.476 318.576 64.082 317.88 64.514C317.196 64.946 316.428 65.162 315.576 65.162C314.844 65.162 314.196 65.012 313.632 64.712C313.08 64.412 312.63 64.034 312.282 63.578V69.752H309.762V55.028H312.282V56.468ZM317.556 59.978C317.556 59.378 317.43 58.862 317.178 58.43C316.938 57.986 316.614 57.65 316.206 57.422C315.81 57.194 315.378 57.08 314.91 57.08C314.454 57.08 314.022 57.2 313.614 57.44C313.218 57.668 312.894 58.004 312.642 58.448C312.402 58.892 312.282 59.414 312.282 60.014C312.282 60.614 312.402 61.136 312.642 61.58C312.894 62.024 313.218 62.366 313.614 62.606C314.022 62.834 314.454 62.948 314.91 62.948C315.378 62.948 315.81 62.828 316.206 62.588C316.614 62.348 316.938 62.006 317.178 61.562C317.43 61.118 317.556 60.59 317.556 59.978ZM331.735 55.028V65H329.197V63.74C328.873 64.172 328.447 64.514 327.919 64.766C327.403 65.006 326.839 65.126 326.227 65.126C325.447 65.126 324.757 64.964 324.157 64.64C323.557 64.304 323.083 63.818 322.735 63.182C322.399 62.534 322.231 61.766 322.231 60.878V55.028H324.751V60.518C324.751 61.31 324.949 61.922 325.345 62.354C325.741 62.774 326.281 62.984 326.965 62.984C327.661 62.984 328.207 62.774 328.603 62.354C328.999 61.922 329.197 61.31 329.197 60.518V55.028H331.735ZM340.107 54.884C341.295 54.884 342.255 55.262 342.987 56.018C343.719 56.762 344.085 57.806 344.085 59.15V65H341.565V59.492C341.565 58.7 341.367 58.094 340.971 57.674C340.575 57.242 340.035 57.026 339.351 57.026C338.655 57.026 338.103 57.242 337.695 57.674C337.299 58.094 337.101 58.7 337.101 59.492V65H334.581V55.028H337.101V56.27C337.437 55.838 337.863 55.502 338.379 55.262C338.907 55.01 339.483 54.884 340.107 54.884Z" fill="#545567"/>
<rect x="18" y="22" width="52" height="49.0001" rx="8" fill="#23BDEE"/>
<g clip-path="url(#clip0_152_75)">
<path d="M33.4554 27.8312C32.767 27.8312 32.209 28.3451 32.209 28.9792V31.2751H34.7017V28.9792C34.7017 28.3451 34.1437 27.8312 33.4554 27.8312Z" fill="white"/>
<path d="M50.9043 27.8312C50.216 27.8312 49.658 28.3451 49.658 28.9792V31.2751H52.1506V28.9792C52.1507 28.3451 51.5927 27.8312 50.9043 27.8312Z" fill="white"/>
<path d="M55.8898 31.275H52.1508V35.8669C52.1508 36.5009 51.5928 37.0149 50.9044 37.0149C50.216 37.0149 49.658 36.5009 49.658 35.8669V31.275H34.7018V35.8669C34.7018 36.5009 34.1438 37.0149 33.4554 37.0149C32.767 37.0149 32.209 36.5009 32.209 35.8669V31.275H28.47C26.405 31.275 24.731 32.8169 24.731 34.7189V56.5301C24.731 58.4321 26.405 59.974 28.47 59.974H55.8898C57.9549 59.974 59.6289 58.4321 59.6289 56.5301V34.7189C59.6289 32.8169 57.9549 31.275 55.8898 31.275ZM57.1362 56.5301C57.1362 57.1642 56.5781 57.6781 55.8898 57.6781H28.47C27.7817 57.6781 27.2236 57.1642 27.2236 56.5301V41.6067H57.1362V56.5301Z" fill="white"/>
<path d="M34.7017 43.9026H32.209C31.5207 43.9026 30.9626 44.4165 30.9626 45.0506C30.9626 45.6846 31.5207 46.1986 32.209 46.1986H34.7017C35.3901 46.1986 35.9481 45.6846 35.9481 45.0506C35.9481 44.4165 35.3901 43.9026 34.7017 43.9026Z" fill="white"/>
<path d="M43.4263 43.9026H40.9336C40.2453 43.9026 39.6873 44.4165 39.6873 45.0506C39.6873 45.6846 40.2453 46.1986 40.9336 46.1986H43.4263C44.1147 46.1986 44.6727 45.6846 44.6727 45.0506C44.6727 44.4165 44.1147 43.9026 43.4263 43.9026Z" fill="white"/>
<path d="M52.1507 43.9026H49.658C48.9696 43.9026 48.4116 44.4165 48.4116 45.0506C48.4116 45.6846 48.9696 46.1986 49.658 46.1986H52.1507C52.8391 46.1986 53.3971 45.6846 53.3971 45.0506C53.3971 44.4165 52.839 43.9026 52.1507 43.9026Z" fill="white"/>
<path d="M34.7017 48.4944H32.209C31.5207 48.4944 30.9626 49.0083 30.9626 49.6424C30.9626 50.2764 31.5207 50.7903 32.209 50.7903H34.7017C35.3901 50.7903 35.9481 50.2764 35.9481 49.6424C35.9481 49.0083 35.3901 48.4944 34.7017 48.4944Z" fill="white"/>
<path d="M43.4263 48.4944H40.9336C40.2453 48.4944 39.6873 49.0083 39.6873 49.6424C39.6873 50.2764 40.2453 50.7903 40.9336 50.7903H43.4263C44.1147 50.7903 44.6727 50.2764 44.6727 49.6424C44.6727 49.0083 44.1147 48.4944 43.4263 48.4944Z" fill="white"/>
<path d="M52.1507 48.4944H49.658C48.9696 48.4944 48.4116 49.0083 48.4116 49.6424C48.4116 50.2764 48.9696 50.7903 49.658 50.7903H52.1507C52.8391 50.7903 53.3971 50.2764 53.3971 49.6424C53.397 49.0083 52.839 48.4944 52.1507 48.4944Z" fill="white"/>
<path d="M34.7017 53.0862H32.209C31.5207 53.0862 30.9626 53.6001 30.9626 54.2342C30.9626 54.8682 31.5207 55.3821 32.209 55.3821H34.7017C35.3901 55.3821 35.9481 54.8681 35.9481 54.2341C35.9481 53.6001 35.3901 53.0862 34.7017 53.0862Z" fill="white"/>
<path d="M43.4263 53.0862H40.9336C40.2453 53.0862 39.6873 53.6001 39.6873 54.2342C39.6873 54.8682 40.2453 55.3821 40.9336 55.3821H43.4263C44.1147 55.3821 44.6727 54.8682 44.6727 54.2342C44.6727 53.6001 44.1147 53.0862 43.4263 53.0862Z" fill="white"/>
<path d="M52.1507 53.0862H49.658C48.9696 53.0862 48.4116 53.6001 48.4116 54.2342C48.4116 54.8682 48.9696 55.3821 49.658 55.3821H52.1507C52.8391 55.3821 53.3971 54.8682 53.3971 54.2342C53.3971 53.6001 52.839 53.0862 52.1507 53.0862Z" fill="white"/>
</g>
<defs>
<filter id="filter0_b_152_75" x="-20" y="-20" width="400" height="133" filterUnits="userSpaceOnUse" color-interpolation-filters="sRGB">
<feFlood flood-opacity="0" result="BackgroundImageFix"/>
<feGaussianBlur in="BackgroundImageFix" stdDeviation="10"/>
<feComposite in2="SourceAlpha" operator="in" result="effect1_backgroundBlur_152_75"/>
<feBlend mode="normal" in="SourceGraphic" in2="effect1_backgroundBlur_152_75" result="shape"/>
</filter>
<clipPath id="clip0_152_75">
<rect width="38" height="35" fill="white" transform="translate(26 29)"/>
</clipPath>
</defs>
</svg>
