<svg width="360" height="93" viewBox="0 0 360 93" fill="none" xmlns="http://www.w3.org/2000/svg">
<g filter="url(#filter0_b_152_72)">
<rect width="360" height="93" rx="20" fill="white" fill-opacity="0.8"/>
</g>
<path d="M104.946 65.606H99.942L99.114 68H96.468L100.986 55.418H103.92L108.438 68H105.774L104.946 65.606ZM104.262 63.59L102.444 58.334L100.626 63.59H104.262ZM122.871 57.884C124.095 57.884 125.079 58.262 125.823 59.018C126.579 59.762 126.957 60.806 126.957 62.15V68H124.437V62.492C124.437 61.712 124.239 61.118 123.843 60.71C123.447 60.29 122.907 60.08 122.223 60.08C121.539 60.08 120.993 60.29 120.585 60.71C120.189 61.118 119.991 61.712 119.991 62.492V68H117.471V62.492C117.471 61.712 117.273 61.118 116.877 60.71C116.481 60.29 115.941 60.08 115.257 60.08C114.561 60.08 114.009 60.29 113.601 60.71C113.205 61.118 113.007 61.712 113.007 62.492V68H110.487V58.028H113.007V59.234C113.331 58.814 113.745 58.484 114.249 58.244C114.765 58.004 115.329 57.884 115.941 57.884C116.721 57.884 117.417 58.052 118.029 58.388C118.641 58.712 119.115 59.18 119.451 59.792C119.775 59.216 120.243 58.754 120.855 58.406C121.479 58.058 122.151 57.884 122.871 57.884ZM129.06 62.978C129.06 61.97 129.258 61.076 129.654 60.296C130.062 59.516 130.608 58.916 131.292 58.496C131.988 58.076 132.762 57.866 133.614 57.866C134.358 57.866 135.006 58.016 135.558 58.316C136.122 58.616 136.572 58.994 136.908 59.45V58.028H139.446V68H136.908V66.542C136.584 67.01 136.134 67.4 135.558 67.712C134.994 68.012 134.34 68.162 133.596 68.162C132.756 68.162 131.988 67.946 131.292 67.514C130.608 67.082 130.062 66.476 129.654 65.696C129.258 64.904 129.06 63.998 129.06 62.978ZM136.908 63.014C136.908 62.402 136.788 61.88 136.548 61.448C136.308 61.004 135.984 60.668 135.576 60.44C135.168 60.2 134.73 60.08 134.262 60.08C133.794 60.08 133.362 60.194 132.966 60.422C132.57 60.65 132.246 60.986 131.994 61.43C131.754 61.862 131.634 62.378 131.634 62.978C131.634 63.578 131.754 64.106 131.994 64.562C132.246 65.006 132.57 65.348 132.966 65.588C133.374 65.828 133.806 65.948 134.262 65.948C134.73 65.948 135.168 65.834 135.576 65.606C135.984 65.366 136.308 65.03 136.548 64.598C136.788 64.154 136.908 63.626 136.908 63.014ZM147.793 57.884C148.981 57.884 149.941 58.262 150.673 59.018C151.405 59.762 151.771 60.806 151.771 62.15V68H149.251V62.492C149.251 61.7 149.053 61.094 148.657 60.674C148.261 60.242 147.721 60.026 147.037 60.026C146.341 60.026 145.789 60.242 145.381 60.674C144.985 61.094 144.787 61.7 144.787 62.492V68H142.267V58.028H144.787V59.27C145.123 58.838 145.549 58.502 146.065 58.262C146.593 58.01 147.169 57.884 147.793 57.884ZM157.282 65.354L155.176 70.412H153.556L154.726 65.354H157.282ZM169.633 57.884C170.821 57.884 171.781 58.262 172.513 59.018C173.245 59.762 173.611 60.806 173.611 62.15V68H171.091V62.492C171.091 61.7 170.893 61.094 170.497 60.674C170.101 60.242 169.561 60.026 168.877 60.026C168.181 60.026 167.629 60.242 167.221 60.674C166.825 61.094 166.627 61.7 166.627 62.492V68H164.107V58.028H166.627V59.27C166.963 58.838 167.389 58.502 167.905 58.262C168.433 58.01 169.009 57.884 169.633 57.884ZM185.907 58.028L179.733 72.716H177.051L179.211 67.748L175.215 58.028H178.041L180.615 64.994L183.225 58.028H185.907ZM186.978 62.978C186.978 61.97 187.176 61.076 187.572 60.296C187.98 59.516 188.526 58.916 189.21 58.496C189.906 58.076 190.68 57.866 191.532 57.866C192.276 57.866 192.924 58.016 193.476 58.316C194.04 58.616 194.49 58.994 194.826 59.45V58.028H197.364V68H194.826V66.542C194.502 67.01 194.052 67.4 193.476 67.712C192.912 68.012 192.258 68.162 191.514 68.162C190.674 68.162 189.906 67.946 189.21 67.514C188.526 67.082 187.98 66.476 187.572 65.696C187.176 64.904 186.978 63.998 186.978 62.978ZM194.826 63.014C194.826 62.402 194.706 61.88 194.466 61.448C194.226 61.004 193.902 60.668 193.494 60.44C193.086 60.2 192.648 60.08 192.18 60.08C191.712 60.08 191.28 60.194 190.884 60.422C190.488 60.65 190.164 60.986 189.912 61.43C189.672 61.862 189.552 62.378 189.552 62.978C189.552 63.578 189.672 64.106 189.912 64.562C190.164 65.006 190.488 65.348 190.884 65.588C191.292 65.828 191.724 65.948 192.18 65.948C192.648 65.948 193.086 65.834 193.494 65.606C193.902 65.366 194.226 65.03 194.466 64.598C194.706 64.154 194.826 63.626 194.826 63.014ZM212.569 57.884C213.793 57.884 214.777 58.262 215.521 59.018C216.277 59.762 216.655 60.806 216.655 62.15V68H214.135V62.492C214.135 61.712 213.937 61.118 213.541 60.71C213.145 60.29 212.605 60.08 211.921 60.08C211.237 60.08 210.691 60.29 210.283 60.71C209.887 61.118 209.689 61.712 209.689 62.492V68H207.169V62.492C207.169 61.712 206.971 61.118 206.575 60.71C206.179 60.29 205.639 60.08 204.955 60.08C204.259 60.08 203.707 60.29 203.299 60.71C202.903 61.118 202.705 61.712 202.705 62.492V68H200.185V58.028H202.705V59.234C203.029 58.814 203.443 58.484 203.947 58.244C204.463 58.004 205.027 57.884 205.639 57.884C206.419 57.884 207.115 58.052 207.727 58.388C208.339 58.712 208.813 59.18 209.149 59.792C209.473 59.216 209.941 58.754 210.553 58.406C211.177 58.058 211.849 57.884 212.569 57.884ZM218.758 62.978C218.758 61.97 218.956 61.076 219.352 60.296C219.76 59.516 220.306 58.916 220.99 58.496C221.686 58.076 222.46 57.866 223.312 57.866C224.056 57.866 224.704 58.016 225.256 58.316C225.82 58.616 226.27 58.994 226.606 59.45V58.028H229.144V68H226.606V66.542C226.282 67.01 225.832 67.4 225.256 67.712C224.692 68.012 224.038 68.162 223.294 68.162C222.454 68.162 221.686 67.946 220.99 67.514C220.306 67.082 219.76 66.476 219.352 65.696C218.956 64.904 218.758 63.998 218.758 62.978ZM226.606 63.014C226.606 62.402 226.486 61.88 226.246 61.448C226.006 61.004 225.682 60.668 225.274 60.44C224.866 60.2 224.428 60.08 223.96 60.08C223.492 60.08 223.06 60.194 222.664 60.422C222.268 60.65 221.944 60.986 221.692 61.43C221.452 61.862 221.332 62.378 221.332 62.978C221.332 63.578 221.452 64.106 221.692 64.562C221.944 65.006 222.268 65.348 222.664 65.588C223.072 65.828 223.504 65.948 223.96 65.948C224.428 65.948 224.866 65.834 225.274 65.606C225.682 65.366 226.006 65.03 226.246 64.598C226.486 64.154 226.606 63.626 226.606 63.014ZM237.492 57.884C238.68 57.884 239.64 58.262 240.372 59.018C241.104 59.762 241.47 60.806 241.47 62.15V68H238.95V62.492C238.95 61.7 238.752 61.094 238.356 60.674C237.96 60.242 237.42 60.026 236.736 60.026C236.04 60.026 235.488 60.242 235.08 60.674C234.684 61.094 234.486 61.7 234.486 62.492V68H231.966V58.028H234.486V59.27C234.822 58.838 235.248 58.502 235.764 58.262C236.292 58.01 236.868 57.884 237.492 57.884ZM246.98 65.354L244.874 70.412H243.254L244.424 65.354H246.98ZM256.739 60.098V64.922C256.739 65.258 256.817 65.504 256.973 65.66C257.141 65.804 257.417 65.876 257.801 65.876H258.971V68H257.387C255.263 68 254.201 66.968 254.201 64.904V60.098H253.013V58.028H254.201V55.562H256.739V58.028H258.971V60.098H256.739ZM270.414 62.798C270.414 63.158 270.39 63.482 270.342 63.77H263.052C263.112 64.49 263.364 65.054 263.808 65.462C264.252 65.87 264.798 66.074 265.446 66.074C266.382 66.074 267.048 65.672 267.444 64.868H270.162C269.874 65.828 269.322 66.62 268.506 67.244C267.69 67.856 266.688 68.162 265.5 68.162C264.54 68.162 263.676 67.952 262.908 67.532C262.152 67.1 261.558 66.494 261.126 65.714C260.706 64.934 260.496 64.034 260.496 63.014C260.496 61.982 260.706 61.076 261.126 60.296C261.546 59.516 262.134 58.916 262.89 58.496C263.646 58.076 264.516 57.866 265.5 57.866C266.448 57.866 267.294 58.07 268.038 58.478C268.794 58.886 269.376 59.468 269.784 60.224C270.204 60.968 270.414 61.826 270.414 62.798ZM267.804 62.078C267.792 61.43 267.558 60.914 267.102 60.53C266.646 60.134 266.088 59.936 265.428 59.936C264.804 59.936 264.276 60.128 263.844 60.512C263.424 60.884 263.166 61.406 263.07 62.078H267.804ZM275.133 59.576C275.457 59.048 275.877 58.634 276.393 58.334C276.921 58.034 277.521 57.884 278.193 57.884V60.53H277.527C276.735 60.53 276.135 60.716 275.727 61.088C275.331 61.46 275.133 62.108 275.133 63.032V68H272.613V58.028H275.133V59.576ZM281.529 56.84C281.073 56.84 280.695 56.702 280.395 56.426C280.107 56.138 279.963 55.784 279.963 55.364C279.963 54.944 280.107 54.596 280.395 54.32C280.695 54.032 281.073 53.888 281.529 53.888C281.973 53.888 282.339 54.032 282.627 54.32C282.915 54.596 283.059 54.944 283.059 55.364C283.059 55.784 282.915 56.138 282.627 56.426C282.339 56.702 281.973 56.84 281.529 56.84ZM282.771 69.638C282.771 70.742 282.495 71.534 281.943 72.014C281.403 72.506 280.623 72.752 279.603 72.752H278.487V70.61H279.207C279.591 70.61 279.861 70.532 280.017 70.376C280.173 70.232 280.251 69.992 280.251 69.656V58.028H282.771V69.638ZM284.972 62.978C284.972 61.97 285.17 61.076 285.566 60.296C285.974 59.516 286.52 58.916 287.204 58.496C287.9 58.076 288.674 57.866 289.526 57.866C290.27 57.866 290.918 58.016 291.47 58.316C292.034 58.616 292.484 58.994 292.82 59.45V58.028H295.358V68H292.82V66.542C292.496 67.01 292.046 67.4 291.47 67.712C290.906 68.012 290.252 68.162 289.508 68.162C288.668 68.162 287.9 67.946 287.204 67.514C286.52 67.082 285.974 66.476 285.566 65.696C285.17 64.904 284.972 63.998 284.972 62.978ZM292.82 63.014C292.82 62.402 292.7 61.88 292.46 61.448C292.22 61.004 291.896 60.668 291.488 60.44C291.08 60.2 290.642 60.08 290.174 60.08C289.706 60.08 289.274 60.194 288.878 60.422C288.482 60.65 288.158 60.986 287.906 61.43C287.666 61.862 287.546 62.378 287.546 62.978C287.546 63.578 287.666 64.106 287.906 64.562C288.158 65.006 288.482 65.348 288.878 65.588C289.286 65.828 289.718 65.948 290.174 65.948C290.642 65.948 291.08 65.834 291.488 65.606C291.896 65.366 292.22 65.03 292.46 64.598C292.7 64.154 292.82 63.626 292.82 63.014ZM302.086 57.866C302.83 57.866 303.484 58.016 304.048 58.316C304.612 58.604 305.056 58.982 305.38 59.45V58.028H307.918V68.072C307.918 68.996 307.732 69.818 307.36 70.538C306.988 71.27 306.43 71.846 305.686 72.266C304.942 72.698 304.042 72.914 302.986 72.914C301.57 72.914 300.406 72.584 299.494 71.924C298.594 71.264 298.084 70.364 297.964 69.224H300.466C300.598 69.68 300.88 70.04 301.312 70.304C301.756 70.58 302.29 70.718 302.914 70.718C303.646 70.718 304.24 70.496 304.696 70.052C305.152 69.62 305.38 68.96 305.38 68.072V66.524C305.056 66.992 304.606 67.382 304.03 67.694C303.466 68.006 302.818 68.162 302.086 68.162C301.246 68.162 300.478 67.946 299.782 67.514C299.086 67.082 298.534 66.476 298.126 65.696C297.73 64.904 297.532 63.998 297.532 62.978C297.532 61.97 297.73 61.076 298.126 60.296C298.534 59.516 299.08 58.916 299.764 58.496C300.46 58.076 301.234 57.866 302.086 57.866ZM305.38 63.014C305.38 62.402 305.26 61.88 305.02 61.448C304.78 61.004 304.456 60.668 304.048 60.44C303.64 60.2 303.202 60.08 302.734 60.08C302.266 60.08 301.834 60.194 301.438 60.422C301.042 60.65 300.718 60.986 300.466 61.43C300.226 61.862 300.106 62.378 300.106 62.978C300.106 63.578 300.226 64.106 300.466 64.562C300.718 65.006 301.042 65.348 301.438 65.588C301.846 65.828 302.278 65.948 302.734 65.948C303.202 65.948 303.64 65.834 304.048 65.606C304.456 65.366 304.78 65.03 305.02 64.598C305.26 64.154 305.38 63.626 305.38 63.014ZM310.091 62.978C310.091 61.97 310.289 61.076 310.685 60.296C311.093 59.516 311.639 58.916 312.323 58.496C313.019 58.076 313.793 57.866 314.645 57.866C315.389 57.866 316.037 58.016 316.589 58.316C317.153 58.616 317.603 58.994 317.939 59.45V58.028H320.477V68H317.939V66.542C317.615 67.01 317.165 67.4 316.589 67.712C316.025 68.012 315.371 68.162 314.627 68.162C313.787 68.162 313.019 67.946 312.323 67.514C311.639 67.082 311.093 66.476 310.685 65.696C310.289 64.904 310.091 63.998 310.091 62.978ZM317.939 63.014C317.939 62.402 317.819 61.88 317.579 61.448C317.339 61.004 317.015 60.668 316.607 60.44C316.199 60.2 315.761 60.08 315.293 60.08C314.825 60.08 314.393 60.194 313.997 60.422C313.601 60.65 313.277 60.986 313.025 61.43C312.785 61.862 312.665 62.378 312.665 62.978C312.665 63.578 312.785 64.106 313.025 64.562C313.277 65.006 313.601 65.348 313.997 65.588C314.405 65.828 314.837 65.948 315.293 65.948C315.761 65.948 316.199 65.834 316.607 65.606C317.015 65.366 317.339 65.03 317.579 64.598C317.819 64.154 317.939 63.626 317.939 63.014Z" fill="#545567"/>
<path d="M102.32 42.14C101.293 42.14 100.373 41.9733 99.56 41.64C98.7467 41.3067 98.0933 40.8133 97.6 40.16C97.12 39.5067 96.8667 38.72 96.84 37.8H100.48C100.533 38.32 100.713 38.72 101.02 39C101.327 39.2667 101.727 39.4 102.22 39.4C102.727 39.4 103.127 39.2867 103.42 39.06C103.713 38.82 103.86 38.4933 103.86 38.08C103.86 37.7333 103.74 37.4467 103.5 37.22C103.273 36.9933 102.987 36.8067 102.64 36.66C102.307 36.5133 101.827 36.3467 101.2 36.16C100.293 35.88 99.5533 35.6 98.98 35.32C98.4067 35.04 97.9133 34.6267 97.5 34.08C97.0867 33.5333 96.88 32.82 96.88 31.94C96.88 30.6333 97.3533 29.6133 98.3 28.88C99.2467 28.1333 100.48 27.76 102 27.76C103.547 27.76 104.793 28.1333 105.74 28.88C106.687 29.6133 107.193 30.64 107.26 31.96H103.56C103.533 31.5067 103.367 31.1533 103.06 30.9C102.753 30.6333 102.36 30.5 101.88 30.5C101.467 30.5 101.133 30.6133 100.88 30.84C100.627 31.0533 100.5 31.3667 100.5 31.78C100.5 32.2333 100.713 32.5867 101.14 32.84C101.567 33.0933 102.233 33.3667 103.14 33.66C104.047 33.9667 104.78 34.26 105.34 34.54C105.913 34.82 106.407 35.2267 106.82 35.76C107.233 36.2933 107.44 36.98 107.44 37.82C107.44 38.62 107.233 39.3467 106.82 40C106.42 40.6533 105.833 41.1733 105.06 41.56C104.287 41.9467 103.373 42.14 102.32 42.14ZM109.265 36.4C109.265 35.2533 109.478 34.2467 109.905 33.38C110.345 32.5133 110.938 31.8467 111.685 31.38C112.431 30.9133 113.265 30.68 114.185 30.68C114.971 30.68 115.658 30.84 116.245 31.16C116.845 31.48 117.305 31.9 117.625 32.42V30.84H121.045V42H117.625V40.42C117.291 40.94 116.825 41.36 116.225 41.68C115.638 42 114.951 42.16 114.165 42.16C113.258 42.16 112.431 41.9267 111.685 41.46C110.938 40.98 110.345 40.3067 109.905 39.44C109.478 38.56 109.265 37.5467 109.265 36.4ZM117.625 36.42C117.625 35.5667 117.385 34.8933 116.905 34.4C116.438 33.9067 115.865 33.66 115.185 33.66C114.505 33.66 113.925 33.9067 113.445 34.4C112.978 34.88 112.745 35.5467 112.745 36.4C112.745 37.2533 112.978 37.9333 113.445 38.44C113.925 38.9333 114.505 39.18 115.185 39.18C115.865 39.18 116.438 38.9333 116.905 38.44C117.385 37.9467 117.625 37.2733 117.625 36.42ZM129.519 33.68H127.679V42H124.259V33.68H123.019V30.84H124.259V30.52C124.259 29.1467 124.652 28.1067 125.439 27.4C126.226 26.68 127.379 26.32 128.899 26.32C129.152 26.32 129.339 26.3267 129.459 26.34V29.24C128.806 29.2 128.346 29.2933 128.079 29.52C127.812 29.7467 127.679 30.1533 127.679 30.74V30.84H129.519V33.68ZM142.046 36.24C142.046 36.56 142.026 36.8933 141.986 37.24H134.246C134.299 37.9333 134.519 38.4667 134.906 38.84C135.306 39.2 135.793 39.38 136.366 39.38C137.219 39.38 137.813 39.02 138.146 38.3H141.786C141.599 39.0333 141.259 39.6933 140.766 40.28C140.286 40.8667 139.679 41.3267 138.946 41.66C138.213 41.9933 137.393 42.16 136.486 42.16C135.393 42.16 134.419 41.9267 133.566 41.46C132.713 40.9933 132.046 40.3267 131.566 39.46C131.086 38.5933 130.846 37.58 130.846 36.42C130.846 35.26 131.079 34.2467 131.546 33.38C132.026 32.5133 132.693 31.8467 133.546 31.38C134.399 30.9133 135.379 30.68 136.486 30.68C137.566 30.68 138.526 30.9067 139.366 31.36C140.206 31.8133 140.859 32.46 141.326 33.3C141.806 34.14 142.046 35.12 142.046 36.24ZM138.546 35.34C138.546 34.7533 138.346 34.2867 137.946 33.94C137.546 33.5933 137.046 33.42 136.446 33.42C135.873 33.42 135.386 33.5867 134.986 33.92C134.599 34.2533 134.359 34.7267 134.266 35.34H138.546ZM159.588 32.48C159.588 33.2933 159.402 34.04 159.028 34.72C158.655 35.3867 158.082 35.9267 157.308 36.34C156.535 36.7533 155.575 36.96 154.428 36.96H152.308V42H148.888V27.96H154.428C155.548 27.96 156.495 28.1533 157.268 28.54C158.042 28.9267 158.622 29.46 159.008 30.14C159.395 30.82 159.588 31.6 159.588 32.48ZM154.168 34.24C154.822 34.24 155.308 34.0867 155.628 33.78C155.948 33.4733 156.108 33.04 156.108 32.48C156.108 31.92 155.948 31.4867 155.628 31.18C155.308 30.8733 154.822 30.72 154.168 30.72H152.308V34.24H154.168ZM165.189 32.7C165.589 32.0867 166.089 31.6067 166.689 31.26C167.289 30.9 167.956 30.72 168.689 30.72V34.34H167.749C166.896 34.34 166.256 34.5267 165.829 34.9C165.402 35.26 165.189 35.9 165.189 36.82V42H161.769V30.84H165.189V32.7ZM172.444 29.68C171.844 29.68 171.35 29.5067 170.964 29.16C170.59 28.8 170.404 28.36 170.404 27.84C170.404 27.3067 170.59 26.8667 170.964 26.52C171.35 26.16 171.844 25.98 172.444 25.98C173.03 25.98 173.51 26.16 173.884 26.52C174.27 26.8667 174.464 27.3067 174.464 27.84C174.464 28.36 174.27 28.8 173.884 29.16C173.51 29.5067 173.03 29.68 172.444 29.68ZM174.144 30.84V42H170.724V30.84H174.144ZM182.042 38.8L184.462 30.84H188.102L184.142 42H179.922L175.962 30.84H179.622L182.042 38.8ZM189.262 36.4C189.262 35.2533 189.475 34.2467 189.902 33.38C190.342 32.5133 190.935 31.8467 191.682 31.38C192.428 30.9133 193.262 30.68 194.182 30.68C194.968 30.68 195.655 30.84 196.242 31.16C196.842 31.48 197.302 31.9 197.622 32.42V30.84H201.042V42H197.622V40.42C197.288 40.94 196.822 41.36 196.222 41.68C195.635 42 194.948 42.16 194.162 42.16C193.255 42.16 192.428 41.9267 191.682 41.46C190.935 40.98 190.342 40.3067 189.902 39.44C189.475 38.56 189.262 37.5467 189.262 36.4ZM197.622 36.42C197.622 35.5667 197.382 34.8933 196.902 34.4C196.435 33.9067 195.862 33.66 195.182 33.66C194.502 33.66 193.922 33.9067 193.442 34.4C192.975 34.88 192.742 35.5467 192.742 36.4C192.742 37.2533 192.975 37.9333 193.442 38.44C193.922 38.9333 194.502 39.18 195.182 39.18C195.862 39.18 196.435 38.9333 196.902 38.44C197.382 37.9467 197.622 37.2733 197.622 36.42ZM203.236 36.42C203.236 35.26 203.469 34.2467 203.936 33.38C204.416 32.5133 205.076 31.8467 205.916 31.38C206.769 30.9133 207.742 30.68 208.836 30.68C210.236 30.68 211.402 31.0467 212.336 31.78C213.282 32.5133 213.902 33.5467 214.196 34.88H210.556C210.249 34.0267 209.656 33.6 208.776 33.6C208.149 33.6 207.649 33.8467 207.276 34.34C206.902 34.82 206.716 35.5133 206.716 36.42C206.716 37.3267 206.902 38.0267 207.276 38.52C207.649 39 208.149 39.24 208.776 39.24C209.656 39.24 210.249 38.8133 210.556 37.96H214.196C213.902 39.2667 213.282 40.2933 212.336 41.04C211.389 41.7867 210.222 42.16 208.836 42.16C207.742 42.16 206.769 41.9267 205.916 41.46C205.076 40.9933 204.416 40.3267 203.936 39.46C203.469 38.5933 203.236 37.58 203.236 36.42ZM227.825 30.84L220.825 47.3H217.145L219.705 41.62L215.165 30.84H218.985L221.565 37.82L224.125 30.84H227.825Z" fill="#595959"/>
<rect x="18" y="14" width="58.4217" height="62.6462" rx="8" fill="#F88C3D"/>
<path d="M57.3372 42.8172H60.8814C61.7204 42.8172 62.4004 43.4483 62.4004 44.2268V60.2016C62.4004 60.9801 61.7204 61.6111 60.8814 61.6111H33.5401C32.7012 61.6111 32.0211 60.9801 32.0211 60.2016V44.2268C32.0211 43.4483 32.7012 42.8172 33.5401 42.8172H37.0843M57.3372 42.8172V33.4203C57.3372 30.288 55.3119 24.0234 47.2108 24.0234C39.1096 24.0234 37.0843 30.288 37.0843 33.4203V42.8172M57.3372 42.8172H37.0843" stroke="white" stroke-width="4" stroke-linecap="round" stroke-linejoin="round"/>
<defs>
<filter id="filter0_b_152_72" x="-20" y="-20" width="400" height="133" filterUnits="userSpaceOnUse" color-interpolation-filters="sRGB">
<feFlood flood-opacity="0" result="BackgroundImageFix"/>
<feGaussianBlur in="BackgroundImageFix" stdDeviation="10"/>
<feComposite in2="SourceAlpha" operator="in" result="effect1_backgroundBlur_152_72"/>
<feBlend mode="normal" in="SourceGraphic" in2="effect1_backgroundBlur_152_72" result="shape"/>
</filter>
</defs>
</svg>
