<svg width="1284" height="1013" viewBox="0 0 1284 1013" fill="none" xmlns="http://www.w3.org/2000/svg">
<ellipse cx="10.6915" cy="10.663" rx="10.6915" ry="10.663" transform="matrix(0.988252 -0.15283 0.153669 0.988122 0 233.051)" fill="#DCE2EE"/>
<ellipse cx="10.6915" cy="10.663" rx="10.6915" ry="10.663" transform="matrix(0.988252 -0.15283 0.153669 0.988122 19.663 359.487)" fill="#DCE2EE"/>
<ellipse cx="10.6915" cy="10.663" rx="10.6915" ry="10.663" transform="matrix(0.988252 -0.15283 0.153669 0.988122 39.3256 485.923)" fill="#DCE2EE"/>
<ellipse cx="10.6915" cy="10.663" rx="10.6915" ry="10.663" transform="matrix(0.988252 -0.15283 0.153669 0.988122 58.9885 612.36)" fill="#DCE2EE"/>
<ellipse cx="10.6915" cy="10.663" rx="10.6915" ry="10.663" transform="matrix(0.988252 -0.15283 0.153669 0.988122 78.6515 738.796)" fill="#DCE2EE"/>
<ellipse cx="10.6915" cy="10.663" rx="10.6915" ry="10.663" transform="matrix(0.988252 -0.15283 0.153669 0.988122 98.3141 865.233)" fill="#DCE2EE"/>
<ellipse cx="10.6915" cy="10.663" rx="10.6915" ry="10.663" transform="matrix(0.988252 -0.15283 0.153669 0.988122 117.977 991.669)" fill="#DCE2EE"/>
<ellipse cx="10.6915" cy="10.663" rx="10.6915" ry="10.663" transform="matrix(0.988252 -0.15283 0.153669 0.988122 126.791 213.443)" fill="#DCE2EE"/>
<ellipse cx="10.6915" cy="10.663" rx="10.6915" ry="10.663" transform="matrix(0.988252 -0.15283 0.153669 0.988122 146.454 339.879)" fill="#DCE2EE"/>
<ellipse cx="10.6915" cy="10.663" rx="10.6915" ry="10.663" transform="matrix(0.988252 -0.15283 0.153669 0.988122 166.117 466.316)" fill="#DCE2EE"/>
<ellipse cx="10.6915" cy="10.663" rx="10.6915" ry="10.663" transform="matrix(0.988252 -0.15283 0.153669 0.988122 185.78 592.752)" fill="#DCE2EE"/>
<ellipse cx="10.6915" cy="10.663" rx="10.6915" ry="10.663" transform="matrix(0.988252 -0.15283 0.153669 0.988122 205.443 719.188)" fill="#DCE2EE"/>
<ellipse cx="10.6915" cy="10.663" rx="10.6915" ry="10.663" transform="matrix(0.988252 -0.15283 0.153669 0.988122 225.105 845.625)" fill="#DCE2EE"/>
<ellipse cx="10.6915" cy="10.663" rx="10.6915" ry="10.663" transform="matrix(0.988252 -0.15283 0.153669 0.988122 244.768 972.061)" fill="#DCE2EE"/>
<ellipse cx="10.6915" cy="10.663" rx="10.6915" ry="10.663" transform="matrix(0.988252 -0.15283 0.153669 0.988122 253.582 193.835)" fill="#DCE2EE"/>
<ellipse cx="10.6915" cy="10.663" rx="10.6915" ry="10.663" transform="matrix(0.988252 -0.15283 0.153669 0.988122 273.245 320.271)" fill="#DCE2EE"/>
<ellipse cx="10.6915" cy="10.663" rx="10.6915" ry="10.663" transform="matrix(0.988252 -0.15283 0.153669 0.988122 292.908 446.708)" fill="#DCE2EE"/>
<ellipse cx="10.6915" cy="10.663" rx="10.6915" ry="10.663" transform="matrix(0.988252 -0.15283 0.153669 0.988122 312.571 573.144)" fill="#DCE2EE"/>
<ellipse cx="10.6915" cy="10.663" rx="10.6915" ry="10.663" transform="matrix(0.988252 -0.15283 0.153669 0.988122 332.233 699.58)" fill="#DCE2EE"/>
<ellipse cx="10.6915" cy="10.663" rx="10.6915" ry="10.663" transform="matrix(0.988252 -0.15283 0.153669 0.988122 351.896 826.017)" fill="#DCE2EE"/>
<ellipse cx="10.6915" cy="10.663" rx="10.6915" ry="10.663" transform="matrix(0.988252 -0.15283 0.153669 0.988122 371.559 952.454)" fill="#DCE2EE"/>
<ellipse cx="10.6915" cy="10.663" rx="10.6915" ry="10.663" transform="matrix(0.988252 -0.15283 0.153669 0.988122 380.373 174.227)" fill="#DCE2EE"/>
<ellipse cx="10.6915" cy="10.663" rx="10.6915" ry="10.663" transform="matrix(0.988252 -0.15283 0.153669 0.988122 400.036 300.664)" fill="#DCE2EE"/>
<ellipse cx="10.6915" cy="10.663" rx="10.6915" ry="10.663" transform="matrix(0.988252 -0.15283 0.153669 0.988122 419.699 427.1)" fill="#DCE2EE"/>
<ellipse cx="10.6915" cy="10.663" rx="10.6915" ry="10.663" transform="matrix(0.988252 -0.15283 0.153669 0.988122 439.362 553.536)" fill="#DCE2EE"/>
<ellipse cx="10.6915" cy="10.663" rx="10.6915" ry="10.663" transform="matrix(0.988252 -0.15283 0.153669 0.988122 459.025 679.973)" fill="#DCE2EE"/>
<ellipse cx="10.6915" cy="10.663" rx="10.6915" ry="10.663" transform="matrix(0.988252 -0.15283 0.153669 0.988122 478.687 806.409)" fill="#DCE2EE"/>
<ellipse cx="10.6915" cy="10.663" rx="10.6915" ry="10.663" transform="matrix(0.988252 -0.15283 0.153669 0.988122 498.35 932.845)" fill="#DCE2EE"/>
<ellipse cx="10.6915" cy="10.663" rx="10.6915" ry="10.663" transform="matrix(0.988252 -0.15283 0.153669 0.988122 507.164 154.619)" fill="#DCE2EE"/>
<ellipse cx="10.6915" cy="10.663" rx="10.6915" ry="10.663" transform="matrix(0.988252 -0.15283 0.153669 0.988122 526.827 281.055)" fill="#DCE2EE"/>
<ellipse cx="10.6915" cy="10.663" rx="10.6915" ry="10.663" transform="matrix(0.988252 -0.15283 0.153669 0.988122 546.49 407.492)" fill="#DCE2EE"/>
<ellipse cx="10.6915" cy="10.663" rx="10.6915" ry="10.663" transform="matrix(0.988252 -0.15283 0.153669 0.988122 566.152 533.928)" fill="#DCE2EE"/>
<ellipse cx="10.6915" cy="10.663" rx="10.6915" ry="10.663" transform="matrix(0.988252 -0.15283 0.153669 0.988122 585.816 660.365)" fill="#DCE2EE"/>
<ellipse cx="10.6915" cy="10.663" rx="10.6915" ry="10.663" transform="matrix(0.988252 -0.15283 0.153669 0.988122 605.478 786.801)" fill="#DCE2EE"/>
<ellipse cx="10.6915" cy="10.663" rx="10.6915" ry="10.663" transform="matrix(0.988252 -0.15283 0.153669 0.988122 625.141 913.238)" fill="#DCE2EE"/>
<ellipse cx="10.6915" cy="10.663" rx="10.6915" ry="10.663" transform="matrix(0.988252 -0.15283 0.153669 0.988122 633.955 135.011)" fill="#DCE2EE"/>
<ellipse cx="10.6915" cy="10.663" rx="10.6915" ry="10.663" transform="matrix(0.988252 -0.15283 0.153669 0.988122 653.618 261.448)" fill="#DCE2EE"/>
<ellipse cx="10.6915" cy="10.663" rx="10.6915" ry="10.663" transform="matrix(0.988252 -0.15283 0.153669 0.988122 673.281 387.884)" fill="#DCE2EE"/>
<ellipse cx="10.6915" cy="10.663" rx="10.6915" ry="10.663" transform="matrix(0.988252 -0.15283 0.153669 0.988122 692.944 514.321)" fill="#DCE2EE"/>
<ellipse cx="10.6915" cy="10.663" rx="10.6915" ry="10.663" transform="matrix(0.988252 -0.15283 0.153669 0.988122 712.606 640.757)" fill="#DCE2EE"/>
<ellipse cx="10.6915" cy="10.663" rx="10.6915" ry="10.663" transform="matrix(0.988252 -0.15283 0.153669 0.988122 732.269 767.193)" fill="#DCE2EE"/>
<ellipse cx="10.6915" cy="10.663" rx="10.6915" ry="10.663" transform="matrix(0.988252 -0.15283 0.153669 0.988122 751.932 893.63)" fill="#DCE2EE"/>
<ellipse cx="10.6915" cy="10.663" rx="10.6915" ry="10.663" transform="matrix(0.988252 -0.15283 0.153669 0.988122 760.746 115.403)" fill="#DCE2EE"/>
<ellipse cx="10.6915" cy="10.663" rx="10.6915" ry="10.663" transform="matrix(0.988252 -0.15283 0.153669 0.988122 780.409 241.84)" fill="#DCE2EE"/>
<ellipse cx="10.6915" cy="10.663" rx="10.6915" ry="10.663" transform="matrix(0.988252 -0.15283 0.153669 0.988122 800.072 368.276)" fill="#DCE2EE"/>
<ellipse cx="10.6915" cy="10.663" rx="10.6915" ry="10.663" transform="matrix(0.988252 -0.15283 0.153669 0.988122 819.734 494.712)" fill="#DCE2EE"/>
<ellipse cx="10.6915" cy="10.663" rx="10.6915" ry="10.663" transform="matrix(0.988252 -0.15283 0.153669 0.988122 839.397 621.149)" fill="#DCE2EE"/>
<ellipse cx="10.6915" cy="10.663" rx="10.6915" ry="10.663" transform="matrix(0.988252 -0.15283 0.153669 0.988122 859.06 747.585)" fill="#DCE2EE"/>
<ellipse cx="10.6915" cy="10.663" rx="10.6915" ry="10.663" transform="matrix(0.988252 -0.15283 0.153669 0.988122 878.723 874.022)" fill="#DCE2EE"/>
<ellipse cx="10.6915" cy="10.663" rx="10.6915" ry="10.663" transform="matrix(0.988252 -0.15283 0.153669 0.988122 887.537 95.7955)" fill="#DCE2EE"/>
<ellipse cx="10.6915" cy="10.663" rx="10.6915" ry="10.663" transform="matrix(0.988252 -0.15283 0.153669 0.988122 907.2 222.232)" fill="#DCE2EE"/>
<ellipse cx="10.6915" cy="10.663" rx="10.6915" ry="10.663" transform="matrix(0.988252 -0.15283 0.153669 0.988122 926.863 348.668)" fill="#DCE2EE"/>
<ellipse cx="10.6915" cy="10.663" rx="10.6915" ry="10.663" transform="matrix(0.988252 -0.15283 0.153669 0.988122 946.525 475.105)" fill="#DCE2EE"/>
<ellipse cx="10.6915" cy="10.663" rx="10.6915" ry="10.663" transform="matrix(0.988252 -0.15283 0.153669 0.988122 966.188 601.541)" fill="#DCE2EE"/>
<ellipse cx="10.6915" cy="10.663" rx="10.6915" ry="10.663" transform="matrix(0.988252 -0.15283 0.153669 0.988122 985.851 727.977)" fill="#DCE2EE"/>
<ellipse cx="10.6915" cy="10.663" rx="10.6915" ry="10.663" transform="matrix(0.988252 -0.15283 0.153669 0.988122 1005.51 854.414)" fill="#DCE2EE"/>
<ellipse cx="10.6915" cy="10.663" rx="10.6915" ry="10.663" transform="matrix(0.988252 -0.15283 0.153669 0.988122 1014.33 76.1877)" fill="#DCE2EE"/>
<ellipse cx="10.6915" cy="10.663" rx="10.6915" ry="10.663" transform="matrix(0.988252 -0.15283 0.153669 0.988122 1033.99 202.624)" fill="#DCE2EE"/>
<ellipse cx="10.6915" cy="10.663" rx="10.6915" ry="10.663" transform="matrix(0.988252 -0.15283 0.153669 0.988122 1053.65 329.06)" fill="#DCE2EE"/>
<ellipse cx="10.6915" cy="10.663" rx="10.6915" ry="10.663" transform="matrix(0.988252 -0.15283 0.153669 0.988122 1073.32 455.497)" fill="#DCE2EE"/>
<ellipse cx="10.6915" cy="10.663" rx="10.6915" ry="10.663" transform="matrix(0.988252 -0.15283 0.153669 0.988122 1092.98 581.933)" fill="#DCE2EE"/>
<ellipse cx="10.6915" cy="10.663" rx="10.6915" ry="10.663" transform="matrix(0.988252 -0.15283 0.153669 0.988122 1112.64 708.37)" fill="#DCE2EE"/>
<ellipse cx="10.6915" cy="10.663" rx="10.6915" ry="10.663" transform="matrix(0.988252 -0.15283 0.153669 0.988122 1132.31 834.806)" fill="#DCE2EE"/>
<ellipse cx="10.6915" cy="10.663" rx="10.6915" ry="10.663" transform="matrix(0.988252 -0.15283 0.153669 0.988122 1141.12 56.5801)" fill="#DCE2EE"/>
<ellipse cx="10.6915" cy="10.663" rx="10.6915" ry="10.663" transform="matrix(0.988252 -0.15283 0.153669 0.988122 1160.78 183.016)" fill="#DCE2EE"/>
<ellipse cx="10.6915" cy="10.663" rx="10.6915" ry="10.663" transform="matrix(0.988252 -0.15283 0.153669 0.988122 1180.44 309.453)" fill="#DCE2EE"/>
<ellipse cx="10.6915" cy="10.663" rx="10.6915" ry="10.663" transform="matrix(0.988252 -0.15283 0.153669 0.988122 1200.11 435.889)" fill="#DCE2EE"/>
<ellipse cx="10.6915" cy="10.663" rx="10.6915" ry="10.663" transform="matrix(0.988252 -0.15283 0.153669 0.988122 1219.77 562.325)" fill="#DCE2EE"/>
<ellipse cx="10.6915" cy="10.663" rx="10.6915" ry="10.663" transform="matrix(0.988252 -0.15283 0.153669 0.988122 1239.43 688.761)" fill="#DCE2EE"/>
<ellipse cx="10.6915" cy="10.663" rx="10.6915" ry="10.663" transform="matrix(0.988252 -0.15283 0.153669 0.988122 1259.1 815.198)" fill="#DCE2EE"/>
<ellipse cx="654.364" cy="251.631" rx="252.336" ry="251.631" fill="#FF6A6A"/>
<ellipse cx="927.677" cy="503.099" rx="21.3844" ry="21.3246" fill="#8C7AFF"/>
<ellipse cx="356.954" cy="406.364" rx="25.6613" ry="25.5896" fill="#FF9A7A"/>
<ellipse cx="999.677" cy="242.099" rx="21.3844" ry="21.3246" fill="#6BF0A8"/>
<g filter="url(#filter0_d_154_165)">
<rect width="113.295" height="113.006" rx="20" transform="matrix(0.977757 -0.20974 0.210866 0.977515 143.293 203.537)" fill="white"/>
</g>
<g filter="url(#filter1_d_154_165)">
<rect width="82.288" height="82.0782" rx="20" transform="matrix(0.977757 -0.20974 0.210866 0.977515 161.712 215.401)" fill="white"/>
</g>
<rect width="22.659" height="11.3006" rx="4" transform="matrix(0.977757 -0.20974 0.210866 0.977515 181.559 230.488)" fill="#545AE8"/>
<rect width="22.659" height="11.3006" rx="4" transform="matrix(0.977757 -0.20974 -0.210866 -0.977515 216.779 268.393)" fill="#545AE8"/>
<rect width="22.659" height="30.135" rx="4" transform="matrix(0.977757 -0.20974 0.210866 0.977515 184.577 244.48)" fill="#545AE8"/>
<rect width="22.659" height="30.135" rx="4" transform="matrix(0.977757 -0.20974 -0.210866 -0.977515 213.761 254.4)" fill="#F48C06"/>
<defs>
<filter id="filter0_d_154_165" x="103.056" y="153.52" width="215.077" height="214.736" filterUnits="userSpaceOnUse" color-interpolation-filters="sRGB">
<feFlood flood-opacity="0" result="BackgroundImageFix"/>
<feColorMatrix in="SourceAlpha" type="matrix" values="0 0 0 0 0 0 0 0 0 0 0 0 0 0 0 0 0 0 127 0" result="hardAlpha"/>
<feOffset dy="14"/>
<feGaussianBlur stdDeviation="22"/>
<feColorMatrix type="matrix" values="0 0 0 0 0.337255 0 0 0 0 0.356863 0 0 0 0 0.866667 0 0 0 0.1 0"/>
<feBlend mode="normal" in2="BackgroundImageFix" result="effect1_dropShadow_154_165"/>
<feBlend mode="normal" in="SourceGraphic" in2="effect1_dropShadow_154_165" result="shape"/>
</filter>
<filter id="filter1_d_154_165" x="121.476" y="173.888" width="178.238" height="178" filterUnits="userSpaceOnUse" color-interpolation-filters="sRGB">
<feFlood flood-opacity="0" result="BackgroundImageFix"/>
<feColorMatrix in="SourceAlpha" type="matrix" values="0 0 0 0 0 0 0 0 0 0 0 0 0 0 0 0 0 0 127 0" result="hardAlpha"/>
<feOffset dy="16"/>
<feGaussianBlur stdDeviation="22"/>
<feColorMatrix type="matrix" values="0 0 0 0 0.0509804 0 0 0 0 0.0588235 0 0 0 0 0.109804 0 0 0 0.1 0"/>
<feBlend mode="normal" in2="BackgroundImageFix" result="effect1_dropShadow_154_165"/>
<feBlend mode="normal" in="SourceGraphic" in2="effect1_dropShadow_154_165" result="shape"/>
</filter>
</defs>
</svg>
